<svg width="819" height="665" viewBox="0 0 819 665" fill="none" xmlns="http://www.w3.org/2000/svg">
<rect width="817.902" height="664.161" transform="translate(0.645752 0.595947)" fill="white"/>
<path d="M419.219 374.154C412.257 374.154 405.77 372.994 399.757 370.673C393.85 368.352 388.681 364.924 384.251 360.388C379.926 355.852 376.551 350.262 374.125 343.616C371.699 336.971 370.485 329.376 370.485 320.832C370.485 312.393 371.751 304.851 374.283 298.206C376.814 291.455 380.243 285.759 384.567 281.117C388.998 276.476 394.166 272.943 400.074 270.516C406.086 268.09 412.521 266.877 419.377 266.877C426.761 266.877 432.984 268.248 438.048 270.991C443.216 273.628 447.436 276.634 450.706 280.01L440.896 291.877C438.259 289.345 435.305 287.236 432.035 285.548C428.871 283.755 424.862 282.858 420.01 282.858C415.369 282.858 411.149 283.755 407.352 285.548C403.66 287.236 400.443 289.714 397.7 292.984C395.063 296.149 393.006 300.052 391.529 304.693C390.053 309.334 389.314 314.556 389.314 320.357C389.314 332.171 391.951 341.454 397.225 348.205C402.605 354.85 410.516 358.173 420.959 358.173C423.913 358.173 426.708 357.804 429.345 357.066C431.982 356.222 434.145 355.061 435.832 353.585V331.275H416.213V316.243H452.288V361.812C448.807 365.293 444.166 368.247 438.364 370.673C432.668 372.994 426.286 374.154 419.219 374.154ZM475.219 372.255V268.776H507.814C513.51 268.776 518.784 269.303 523.636 270.358C528.594 271.413 532.866 273.206 536.452 275.738C540.039 278.269 542.834 281.592 544.838 285.706C546.843 289.714 547.845 294.725 547.845 300.737C547.845 306.433 546.843 311.391 544.838 315.611C542.834 319.83 540.039 323.364 536.452 326.212C532.972 328.954 528.805 331.011 523.953 332.382C519.206 333.648 514.037 334.281 508.447 334.281H493.573V372.255H475.219ZM493.573 319.566H507.023C522.212 319.566 529.807 313.29 529.807 300.737C529.807 294.197 527.803 289.714 523.794 287.288C519.892 284.757 514.09 283.491 506.39 283.491H493.573V319.566ZM595.987 374.154C589.025 374.154 582.274 372.835 575.734 370.198C569.3 367.561 563.604 363.816 558.646 358.964L569.405 346.464C573.097 349.945 577.317 352.793 582.063 355.009C586.81 357.118 591.557 358.173 596.304 358.173C602.211 358.173 606.694 356.96 609.753 354.534C612.812 352.108 614.341 348.891 614.341 344.882C614.341 342.773 613.919 340.979 613.075 339.503C612.337 338.026 611.229 336.76 609.753 335.705C608.381 334.545 606.694 333.49 604.689 332.541C602.791 331.591 600.681 330.642 598.36 329.693L584.12 323.522C581.589 322.467 579.057 321.148 576.525 319.566C574.099 317.984 571.884 316.085 569.88 313.87C567.876 311.655 566.241 309.071 564.975 306.117C563.815 303.163 563.235 299.788 563.235 295.991C563.235 291.877 564.078 288.079 565.766 284.598C567.559 281.012 569.985 277.9 573.044 275.263C576.103 272.626 579.743 270.569 583.962 269.092C588.287 267.616 592.981 266.877 598.044 266.877C604.057 266.877 609.858 268.09 615.449 270.516C621.039 272.837 625.839 276.002 629.847 280.01L620.512 291.719C617.137 288.976 613.656 286.814 610.069 285.231C606.483 283.649 602.474 282.858 598.044 282.858C593.086 282.858 589.131 283.966 586.177 286.181C583.224 288.29 581.747 291.244 581.747 295.041C581.747 297.045 582.169 298.786 583.013 300.263C583.962 301.634 585.175 302.9 586.652 304.06C588.234 305.115 590.027 306.117 592.031 307.066C594.036 307.91 596.093 308.754 598.202 309.598L612.284 315.452C615.343 316.718 618.139 318.195 620.67 319.883C623.202 321.57 625.364 323.522 627.157 325.737C629.056 327.952 630.533 330.536 631.588 333.49C632.643 336.338 633.17 339.661 633.17 343.458C633.17 347.677 632.326 351.633 630.638 355.325C628.951 359.017 626.472 362.287 623.202 365.135C620.037 367.878 616.134 370.093 611.493 371.78C606.957 373.363 601.789 374.154 595.987 374.154Z" fill="#282828"/>
<path d="M377.808 424.74L373.497 403.053H377.443L379.333 413.996C379.51 415.167 379.687 416.328 379.863 417.478C380.04 418.627 380.217 419.777 380.394 420.926H380.527C380.77 419.777 381.002 418.627 381.223 417.478C381.466 416.306 381.709 415.145 381.953 413.996L384.606 403.053H387.955L390.608 413.996C390.851 415.123 391.094 416.273 391.337 417.445C391.58 418.594 391.824 419.755 392.067 420.926H392.199C392.376 419.755 392.542 418.594 392.697 417.445C392.874 416.295 393.051 415.145 393.227 413.996L395.118 403.053H398.798L394.653 424.74H389.878L387.192 413.333C387.015 412.492 386.838 411.663 386.662 410.845C386.507 410.005 386.363 409.165 386.23 408.325H386.098C385.943 409.165 385.777 410.005 385.6 410.845C385.446 411.663 385.28 412.492 385.103 413.333L382.483 424.74H377.808ZM408.807 425.138C407.679 425.138 406.629 424.95 405.656 424.574C404.684 424.176 403.832 423.613 403.103 422.883C402.373 422.153 401.799 421.269 401.379 420.23C400.981 419.169 400.782 417.964 400.782 416.616C400.782 415.289 400.992 414.095 401.412 413.034C401.832 411.973 402.384 411.078 403.07 410.348C403.777 409.619 404.584 409.055 405.491 408.657C406.397 408.259 407.325 408.06 408.276 408.06C409.381 408.06 410.354 408.248 411.194 408.624C412.034 409 412.731 409.53 413.283 410.215C413.858 410.901 414.289 411.719 414.577 412.669C414.864 413.62 415.008 414.659 415.008 415.786C415.008 416.162 414.986 416.516 414.941 416.848C414.919 417.179 414.886 417.445 414.842 417.644H404.496C404.673 419.103 405.181 420.23 406.021 421.026C406.883 421.8 407.978 422.187 409.304 422.187C410.012 422.187 410.664 422.087 411.261 421.888C411.88 421.667 412.488 421.369 413.084 420.993L414.378 423.38C413.604 423.889 412.742 424.309 411.791 424.641C410.841 424.972 409.846 425.138 408.807 425.138ZM404.463 415.057H411.692C411.692 413.797 411.415 412.813 410.863 412.106C410.332 411.376 409.503 411.011 408.376 411.011C407.403 411.011 406.552 411.354 405.822 412.039C405.093 412.725 404.639 413.731 404.463 415.057ZM431.026 425.138C430.075 425.138 429.268 424.994 428.605 424.707C427.964 424.419 427.433 424.021 427.013 423.513C426.615 422.982 426.317 422.363 426.118 421.656C425.941 420.926 425.853 420.12 425.853 419.235V411.476H423.531V408.624L426.051 408.458L426.516 404.014H429.699V408.458H433.844V411.476H429.699V419.235C429.699 421.136 430.462 422.087 431.987 422.087C432.275 422.087 432.562 422.054 432.85 421.988C433.159 421.921 433.435 421.833 433.679 421.722L434.342 424.541C433.9 424.696 433.391 424.828 432.816 424.939C432.264 425.072 431.667 425.138 431.026 425.138ZM437.271 424.74V408.458H440.421L440.686 411.343H440.819C441.394 410.282 442.09 409.475 442.908 408.922C443.726 408.347 444.566 408.06 445.428 408.06C446.202 408.06 446.821 408.17 447.285 408.392L446.622 411.708C446.335 411.619 446.07 411.553 445.826 411.509C445.583 411.464 445.285 411.442 444.931 411.442C444.29 411.442 443.616 411.697 442.908 412.205C442.201 412.691 441.593 413.554 441.084 414.792V424.74H437.271ZM452.713 425.138C451.276 425.138 450.116 424.707 449.231 423.845C448.347 422.96 447.905 421.8 447.905 420.363C447.905 419.501 448.082 418.738 448.435 418.075C448.811 417.389 449.386 416.803 450.16 416.317C450.956 415.831 451.951 415.422 453.144 415.09C454.36 414.758 455.808 414.504 457.488 414.327C457.466 413.907 457.4 413.509 457.29 413.134C457.201 412.736 457.035 412.393 456.792 412.106C456.571 411.796 456.273 411.564 455.897 411.409C455.521 411.232 455.057 411.144 454.504 411.144C453.708 411.144 452.923 411.299 452.15 411.608C451.398 411.918 450.657 412.294 449.928 412.736L448.535 410.182C449.441 409.607 450.458 409.11 451.586 408.69C452.713 408.27 453.929 408.06 455.234 408.06C457.267 408.06 458.782 408.668 459.777 409.884C460.794 411.078 461.302 412.813 461.302 415.09V424.74H458.152L457.886 422.949H457.754C457.024 423.568 456.239 424.088 455.399 424.508C454.581 424.928 453.686 425.138 452.713 425.138ZM453.94 422.153C454.603 422.153 455.2 421.999 455.731 421.689C456.284 421.38 456.869 420.938 457.488 420.363V416.715C456.383 416.848 455.455 417.025 454.703 417.246C453.951 417.467 453.343 417.721 452.879 418.008C452.415 418.274 452.083 418.583 451.884 418.937C451.685 419.291 451.586 419.666 451.586 420.064C451.586 420.794 451.807 421.324 452.249 421.656C452.691 421.988 453.255 422.153 453.94 422.153ZM472.664 425.138C471.558 425.138 470.519 424.95 469.547 424.574C468.596 424.198 467.767 423.646 467.06 422.916C466.352 422.187 465.799 421.291 465.402 420.23C465.004 419.169 464.805 417.964 464.805 416.616C464.805 415.267 465.026 414.062 465.468 413.001C465.91 411.94 466.507 411.044 467.259 410.315C468.01 409.585 468.872 409.033 469.845 408.657C470.84 408.259 471.879 408.06 472.962 408.06C474.023 408.06 474.93 408.237 475.681 408.591C476.455 408.944 477.141 409.375 477.737 409.884L475.88 412.371C475.438 411.995 474.996 411.708 474.554 411.509C474.134 411.288 473.67 411.177 473.161 411.177C471.835 411.177 470.763 411.675 469.945 412.669C469.127 413.642 468.718 414.957 468.718 416.616C468.718 418.251 469.116 419.567 469.911 420.562C470.729 421.534 471.78 422.021 473.062 422.021C473.703 422.021 474.3 421.888 474.852 421.623C475.427 421.335 475.947 421.004 476.411 420.628L477.97 423.148C477.196 423.811 476.345 424.309 475.416 424.641C474.51 424.972 473.592 425.138 472.664 425.138ZM481.183 424.74V401.328H484.931V415.952H485.03L491.065 408.458H495.244L489.673 415.09L495.807 424.74H491.662L487.484 417.677L484.931 420.595V424.74H481.183ZM505.147 424.74V408.458H508.961V424.74H505.147ZM507.071 405.606C506.385 405.606 505.822 405.407 505.38 405.009C504.937 404.611 504.716 404.092 504.716 403.451C504.716 402.809 504.937 402.29 505.38 401.892C505.822 401.472 506.385 401.262 507.071 401.262C507.756 401.262 508.32 401.472 508.762 401.892C509.204 402.29 509.425 402.809 509.425 403.451C509.425 404.092 509.204 404.611 508.762 405.009C508.32 405.407 507.756 405.606 507.071 405.606ZM519.563 425.138C518.613 425.138 517.806 424.994 517.142 424.707C516.501 424.419 515.971 424.021 515.551 423.513C515.153 422.982 514.854 422.363 514.655 421.656C514.479 420.926 514.39 420.12 514.39 419.235V411.476H512.069V408.624L514.589 408.458L515.053 404.014H518.237V408.458H522.382V411.476H518.237V419.235C518.237 421.136 518.999 422.087 520.525 422.087C520.812 422.087 521.1 422.054 521.387 421.988C521.697 421.921 521.973 421.833 522.216 421.722L522.879 424.541C522.437 424.696 521.929 424.828 521.354 424.939C520.801 425.072 520.204 425.138 519.563 425.138ZM533.11 424.74V411.476H530.922V408.624L533.11 408.458V406.767C533.11 405.927 533.21 405.153 533.409 404.445C533.608 403.716 533.928 403.097 534.37 402.588C534.813 402.058 535.365 401.649 536.028 401.361C536.714 401.074 537.543 400.93 538.516 400.93C539.09 400.93 539.632 400.986 540.14 401.096C540.671 401.207 541.124 401.339 541.5 401.494L540.771 404.346C540.174 404.081 539.577 403.948 538.98 403.948C537.609 403.948 536.924 404.865 536.924 406.7V408.458H540.107V411.476H536.924V424.74H533.11ZM549.313 425.138C548.296 425.138 547.324 424.95 546.395 424.574C545.467 424.198 544.638 423.646 543.908 422.916C543.201 422.187 542.637 421.291 542.217 420.23C541.797 419.169 541.587 417.964 541.587 416.616C541.587 415.267 541.797 414.062 542.217 413.001C542.637 411.94 543.201 411.044 543.908 410.315C544.638 409.585 545.467 409.033 546.395 408.657C547.324 408.259 548.296 408.06 549.313 408.06C550.33 408.06 551.303 408.259 552.232 408.657C553.182 409.033 554.011 409.585 554.719 410.315C555.426 411.044 555.99 411.94 556.41 413.001C556.852 414.062 557.073 415.267 557.073 416.616C557.073 417.964 556.852 419.169 556.41 420.23C555.99 421.291 555.426 422.187 554.719 422.916C554.011 423.646 553.182 424.198 552.232 424.574C551.303 424.95 550.33 425.138 549.313 425.138ZM549.313 422.021C550.507 422.021 551.447 421.534 552.132 420.562C552.817 419.567 553.16 418.251 553.16 416.616C553.16 414.957 552.817 413.642 552.132 412.669C551.447 411.675 550.507 411.177 549.313 411.177C548.12 411.177 547.18 411.675 546.495 412.669C545.831 413.642 545.5 414.957 545.5 416.616C545.5 418.251 545.831 419.567 546.495 420.562C547.18 421.534 548.12 422.021 549.313 422.021ZM560.848 424.74V408.458H563.998L564.263 411.343H564.396C564.971 410.282 565.667 409.475 566.485 408.922C567.303 408.347 568.143 408.06 569.005 408.06C569.779 408.06 570.398 408.17 570.862 408.392L570.199 411.708C569.912 411.619 569.647 411.553 569.403 411.509C569.16 411.464 568.862 411.442 568.508 411.442C567.867 411.442 567.193 411.697 566.485 412.205C565.778 412.691 565.17 413.554 564.661 414.792V424.74H560.848ZM580.951 431.439C580.509 431.439 580.122 431.405 579.791 431.339C579.459 431.295 579.139 431.217 578.829 431.107L579.525 428.122C579.68 428.167 579.857 428.211 580.056 428.255C580.277 428.321 580.487 428.355 580.686 428.355C581.548 428.355 582.234 428.089 582.742 427.559C583.273 427.05 583.671 426.387 583.936 425.569L584.234 424.541L577.834 408.458H581.714L584.533 416.45C584.776 417.157 585.008 417.909 585.229 418.705C585.472 419.478 585.716 420.252 585.959 421.026H586.091C586.29 420.274 586.489 419.512 586.688 418.738C586.909 417.942 587.119 417.179 587.318 416.45L589.772 408.458H593.453L587.55 425.47C587.219 426.398 586.854 427.227 586.456 427.957C586.058 428.686 585.594 429.305 585.063 429.814C584.555 430.344 583.958 430.742 583.273 431.007C582.609 431.295 581.836 431.439 580.951 431.439ZM602.747 425.138C601.73 425.138 600.757 424.95 599.829 424.574C598.9 424.198 598.071 423.646 597.342 422.916C596.634 422.187 596.07 421.291 595.65 420.23C595.23 419.169 595.02 417.964 595.02 416.616C595.02 415.267 595.23 414.062 595.65 413.001C596.07 411.94 596.634 411.044 597.342 410.315C598.071 409.585 598.9 409.033 599.829 408.657C600.757 408.259 601.73 408.06 602.747 408.06C603.764 408.06 604.736 408.259 605.665 408.657C606.616 409.033 607.445 409.585 608.152 410.315C608.86 411.044 609.423 411.94 609.843 413.001C610.285 414.062 610.507 415.267 610.507 416.616C610.507 417.964 610.285 419.169 609.843 420.23C609.423 421.291 608.86 422.187 608.152 422.916C607.445 423.646 606.616 424.198 605.665 424.574C604.736 424.95 603.764 425.138 602.747 425.138ZM602.747 422.021C603.941 422.021 604.88 421.534 605.566 420.562C606.251 419.567 606.594 418.251 606.594 416.616C606.594 414.957 606.251 413.642 605.566 412.669C604.88 411.675 603.941 411.177 602.747 411.177C601.553 411.177 600.613 411.675 599.928 412.669C599.265 413.642 598.933 414.957 598.933 416.616C598.933 418.251 599.265 419.567 599.928 420.562C600.613 421.534 601.553 422.021 602.747 422.021ZM619.123 425.138C617.376 425.138 616.105 424.585 615.309 423.48C614.513 422.352 614.115 420.75 614.115 418.672V408.458H617.929V418.174C617.929 419.523 618.128 420.473 618.526 421.026C618.924 421.579 619.565 421.855 620.449 421.855C621.157 421.855 621.776 421.678 622.306 421.324C622.859 420.971 623.445 420.396 624.064 419.6V408.458H627.877V424.74H624.76L624.462 422.352H624.362C623.655 423.192 622.881 423.867 622.041 424.375C621.223 424.884 620.25 425.138 619.123 425.138Z" fill="#282828"/>
<ellipse cx="252.115" cy="411.409" rx="78.7384" ry="13.1231" fill="#282828"/>
<path d="M161.544 230.335C157.053 222.674 165.063 213.116 173.717 214.755C174.568 214.916 175.418 215.115 176.243 215.371C180.119 216.572 191.098 221.412 208.116 230.335C227.69 240.598 240.935 248.717 252.12 248.717C263.305 248.717 276.55 240.598 296.123 230.335C313.142 221.412 324.121 216.572 327.997 215.371C328.822 215.115 329.672 214.916 330.523 214.755C339.177 213.116 347.187 222.674 342.696 230.335L263.303 365.761C258.394 374.135 245.846 374.135 240.936 365.761L161.544 230.335Z" fill="#C62221"/>
</svg>
