<svg width="24" height="24" viewBox="0 0 24 24" fill="none" xmlns="http://www.w3.org/2000/svg">
<path d="M12.6875 4.74902H22.3125C22.692 4.74902 23 5.05702 23 5.43652V19.1865C23 19.566 22.692 19.874 22.3125 19.874H12.6875V4.74902Z" fill="#C62222"/>
<path d="M15.4375 7.49902H12.6875C12.308 7.49902 12 7.80702 12 8.18652C12 8.56602 12.308 8.87402 12.6875 8.87402H15.4375C15.817 8.87402 16.125 8.56602 16.125 8.18652C16.125 7.80702 15.817 7.49902 15.4375 7.49902Z" fill="white"/>
<path d="M15.4375 10.249H12.6875C12.308 10.249 12 10.557 12 10.9365C12 11.316 12.308 11.624 12.6875 11.624H15.4375C15.817 11.624 16.125 11.316 16.125 10.9365C16.125 10.557 15.817 10.249 15.4375 10.249Z" fill="white"/>
<path d="M15.4375 12.999H12.6875C12.308 12.999 12 13.307 12 13.6865C12 14.066 12.308 14.374 12.6875 14.374H15.4375C15.817 14.374 16.125 14.066 16.125 13.6865C16.125 13.307 15.817 12.999 15.4375 12.999Z" fill="white"/>
<path d="M15.4375 15.749H12.6875C12.308 15.749 12 16.057 12 16.4365C12 16.816 12.308 17.124 12.6875 17.124H15.4375C15.817 17.124 16.125 16.816 16.125 16.4365C16.125 16.057 15.817 15.749 15.4375 15.749Z" fill="white"/>
<path d="M19.5625 7.49902H18.1875C17.808 7.49902 17.5 7.80702 17.5 8.18652C17.5 8.56602 17.808 8.87402 18.1875 8.87402H19.5625C19.942 8.87402 20.25 8.56602 20.25 8.18652C20.25 7.80702 19.942 7.49902 19.5625 7.49902Z" fill="white"/>
<path d="M19.5625 10.249H18.1875C17.808 10.249 17.5 10.557 17.5 10.9365C17.5 11.316 17.808 11.624 18.1875 11.624H19.5625C19.942 11.624 20.25 11.316 20.25 10.9365C20.25 10.557 19.942 10.249 19.5625 10.249Z" fill="white"/>
<path d="M19.5625 12.999H18.1875C17.808 12.999 17.5 13.307 17.5 13.6865C17.5 14.066 17.808 14.374 18.1875 14.374H19.5625C19.942 14.374 20.25 14.066 20.25 13.6865C20.25 13.307 19.942 12.999 19.5625 12.999Z" fill="white"/>
<path d="M19.5625 15.749H18.1875C17.808 15.749 17.5 16.057 17.5 16.4365C17.5 16.816 17.808 17.124 18.1875 17.124H19.5625C19.942 17.124 20.25 16.816 20.25 16.4365C20.25 16.057 19.942 15.749 19.5625 15.749Z" fill="white"/>
<path d="M12.561 2.01152C12.7618 1.9744 12.9694 2.02802 13.1261 2.15727C13.2843 2.2879 13.375 2.48177 13.375 2.68665V21.9366C13.375 22.1401 13.2843 22.3354 13.1261 22.466C13.0024 22.5691 12.8456 22.6241 12.6875 22.6241C12.6463 22.6241 12.6023 22.62 12.561 22.6118L1.561 20.5493C1.23513 20.4888 1 20.2041 1 19.8741V4.74915C1 4.41777 1.23513 4.13452 1.561 4.07402L12.561 2.01152Z" fill="#C62222"/>
<path d="M10.4557 14.6094L5.64318 9.10942C5.39018 8.82205 4.95706 8.79455 4.67243 9.0448C4.38643 9.29505 4.35756 9.72955 4.60781 10.0142L9.42031 15.5142C9.55643 15.6695 9.74618 15.7493 9.93731 15.7493C10.0982 15.7493 10.2591 15.6929 10.3911 15.5788C10.6771 15.3285 10.7059 14.8954 10.4557 14.6094Z" fill="white"/>
<path d="M10.3596 8.33219C10.0599 8.09706 9.62815 8.15344 9.3944 8.45181L4.5819 14.6393C4.34952 14.9391 4.40315 15.3722 4.7029 15.6046C4.8294 15.7022 4.9779 15.7489 5.12502 15.7489C5.32852 15.7489 5.53202 15.6582 5.66677 15.4849L10.4793 9.29744C10.713 8.99631 10.6594 8.56456 10.3596 8.33219Z" fill="white"/>
</svg>
