<svg width="24" height="24" viewBox="0 0 24 24" fill="none" xmlns="http://www.w3.org/2000/svg">
<path fill-rule="evenodd" clip-rule="evenodd" d="M6.25002 16.9943C6.25315 16.5801 6.59146 16.2469 7.00566 16.25L11.9107 16.287C12.3249 16.2901 12.6581 16.6285 12.655 17.0427C12.6519 17.4569 12.3135 17.7901 11.8993 17.787L6.99434 17.75C6.58014 17.7469 6.2469 17.4085 6.25002 16.9943Z" fill="#475461"/>
<path fill-rule="evenodd" clip-rule="evenodd" d="M11.25 13C11.25 12.5858 11.5858 12.25 12 12.25H17C17.4142 12.25 17.75 12.5858 17.75 13C17.75 13.4142 17.4142 13.75 17 13.75H12C11.5858 13.75 11.25 13.4142 11.25 13Z" fill="#475461"/>
<path fill-rule="evenodd" clip-rule="evenodd" d="M2.25 9C2.25 8.58579 2.58579 8.25 3 8.25H21C21.4142 8.25 21.75 8.58579 21.75 9C21.75 9.41421 21.4142 9.75 21 9.75H3C2.58579 9.75 2.25 9.41421 2.25 9Z" fill="#475461"/>
<path fill-rule="evenodd" clip-rule="evenodd" d="M8 1.75C8.41421 1.75 8.75 2.08579 8.75 2.5V5.5C8.75 5.91421 8.41421 6.25 8 6.25C7.58579 6.25 7.25 5.91421 7.25 5.5V2.5C7.25 2.08579 7.58579 1.75 8 1.75Z" fill="#475461"/>
<path fill-rule="evenodd" clip-rule="evenodd" d="M16 1.75C16.4142 1.75 16.75 2.08579 16.75 2.5V5.5C16.75 5.91421 16.4142 6.25 16 6.25C15.5858 6.25 15.25 5.91421 15.25 5.5V2.5C15.25 2.08579 15.5858 1.75 16 1.75Z" fill="#475461"/>
<path fill-rule="evenodd" clip-rule="evenodd" d="M6 4.75C4.75721 4.75 3.75 5.75721 3.75 7V18C3.75 19.2428 4.75721 20.25 6 20.25H18C19.2428 20.25 20.25 19.2428 20.25 18V7C20.25 5.75721 19.2428 4.75 18 4.75H6ZM2.25 7C2.25 4.92879 3.92879 3.25 6 3.25H18C20.0712 3.25 21.75 4.92879 21.75 7V18C21.75 20.0712 20.0712 21.75 18 21.75H6C3.92879 21.75 2.25 20.0712 2.25 18V7Z" fill="#475461"/>
</svg>
