<svg width="24" height="24" viewBox="0 0 24 24" fill="none" xmlns="http://www.w3.org/2000/svg">
<path d="M12 3.00098V5.43998" stroke="#475461" stroke-width="1.5" stroke-linecap="round" stroke-linejoin="round"/>
<path d="M16.0003 8L13.4043 10.596" stroke="#475461" stroke-width="1.5" stroke-linecap="round" stroke-linejoin="round"/>
<path d="M11.9814 10C13.0864 10 13.9814 10.895 13.9814 12C13.9814 13.105 13.0864 14 11.9814 14C10.8764 14 9.98145 13.105 9.98145 12C9.98145 10.895 10.8764 10 11.9814 10Z" stroke="#475461" stroke-width="1.5" stroke-linecap="round" stroke-linejoin="round"/>
<path d="M3 12H5" stroke="#475461" stroke-width="1.5" stroke-linecap="round" stroke-linejoin="round"/>
<path d="M7.05125 16.9498L5.63725 18.3638L5.64025 18.3598L5.63625 18.3638C2.12125 14.8488 2.12125 9.15076 5.63625 5.63576C9.15125 2.12076 14.8493 2.12076 18.3643 5.63576C20.1223 7.39276 21.0002 9.69676 21.0002 11.9998H19.0002" stroke="#475461" stroke-width="1.5" stroke-linecap="round" stroke-linejoin="round"/>
<path d="M5.64062 5.63965L7.05063 7.04965" stroke="#475461" stroke-width="1.5" stroke-linecap="round" stroke-linejoin="round"/>
<path d="M15.5898 16.5898L18.4098 19.4098" stroke="#475461" stroke-width="1.5" stroke-linecap="round" stroke-linejoin="round"/>
<path d="M18.4098 16.5898L15.5898 19.4098" stroke="#475461" stroke-width="1.5" stroke-linecap="round" stroke-linejoin="round"/>
</svg>
