<svg width="24" height="24" viewBox="0 0 24 24" fill="none" xmlns="http://www.w3.org/2000/svg">
<path d="M14.475 4.525C14.8 4.85002 15.0578 5.23587 15.2337 5.66054C15.4096 6.0852 15.5002 6.54035 15.5002 7C15.5002 7.45965 15.4096 7.91479 15.2337 8.33946C15.0578 8.76412 14.8 9.14997 14.475 9.475C14.15 9.80002 13.7641 10.0578 13.3395 10.2337C12.9148 10.4096 12.4597 10.5002 12 10.5002C11.5404 10.5002 11.0852 10.4096 10.6605 10.2337C10.2359 10.0578 9.85002 9.80002 9.525 9.475C8.86859 8.81858 8.49982 7.9283 8.49982 7C8.49982 6.07169 8.86859 5.18141 9.525 4.525C10.1814 3.86858 11.0717 3.49982 12 3.49982C12.9283 3.49982 13.8186 3.86858 14.475 4.525" stroke="#0C1132" stroke-width="1.5" stroke-linecap="round" stroke-linejoin="round"/>
<path d="M4 18.5V19.5C4 19.7652 4.10536 20.0196 4.29289 20.2071C4.48043 20.3946 4.73478 20.5 5 20.5H19C19.2652 20.5 19.5196 20.3946 19.7071 20.2071C19.8946 20.0196 20 19.7652 20 19.5V18.5C20 15.474 16.048 13.508 12 13.508C7.952 13.508 4 15.474 4 18.5Z" stroke="#0C1132" stroke-width="1.5" stroke-linecap="round" stroke-linejoin="round"/>
</svg>
