<svg width="24" height="24" viewBox="0 0 24 24" fill="none" xmlns="http://www.w3.org/2000/svg">
<path d="M7 3H5C3.895 3 3 3.895 3 5V19C3 20.105 3.895 21 5 21H17C18.105 21 19 20.105 19 19V18" stroke="#475461" stroke-width="1.5" stroke-linecap="round" stroke-linejoin="round"/>
<path d="M13 17.0002L16.15 16.6112C16.371 16.5842 16.577 16.4832 16.735 16.3262L21.366 11.6952C22.211 10.8502 22.211 9.48024 21.366 8.63424C20.521 7.78924 19.151 7.78924 18.305 8.63424L13.745 13.1942C13.592 13.3472 13.493 13.5452 13.462 13.7602L13 17.0002V17.0002Z" stroke="#475461" stroke-width="1.5" stroke-linecap="round" stroke-linejoin="round"/>
<path d="M13.5 4.5H8.5C7.672 4.5 7 3.828 7 3C7 2.172 7.672 1.5 8.5 1.5H13.5C14.328 1.5 15 2.172 15 3C15 3.828 14.328 4.5 13.5 4.5Z" stroke="#475461" stroke-width="1.5" stroke-linecap="round" stroke-linejoin="round"/>
<path d="M7 8H13" stroke="#475461" stroke-width="1.5" stroke-linecap="round" stroke-linejoin="round"/>
<path d="M7 12H11" stroke="#475461" stroke-width="1.5" stroke-linecap="round" stroke-linejoin="round"/>
<path d="M15 3H17C18.105 3 19 3.895 19 5" stroke="#475461" stroke-width="1.5" stroke-linecap="round" stroke-linejoin="round"/>
</svg>
