<svg width="24" height="24" viewBox="0 0 24 24" fill="none" xmlns="http://www.w3.org/2000/svg">
<path fill-rule="evenodd" clip-rule="evenodd" d="M15.25 13.0005C15.25 12.5863 15.5858 12.2505 16 12.2505H18C19.5192 12.2505 20.75 13.4813 20.75 15.0005C20.75 16.5197 19.5192 17.7505 18 17.7505H6C5.30921 17.7505 4.75 18.3097 4.75 19.0005C4.75 19.6913 5.30921 20.2505 6 20.2505H10C10.4142 20.2505 10.75 20.5863 10.75 21.0005C10.75 21.4147 10.4142 21.7505 10 21.7505H6C4.48079 21.7505 3.25 20.5197 3.25 19.0005C3.25 17.4813 4.48079 16.2505 6 16.2505H18C18.6908 16.2505 19.25 15.6913 19.25 15.0005C19.25 14.3097 18.6908 13.7505 18 13.7505H16C15.5858 13.7505 15.25 13.4147 15.25 13.0005Z" fill="#45485E"/>
<path fill-rule="evenodd" clip-rule="evenodd" d="M6.25 6.88949C6.25 4.30748 8.39686 2.25049 11 2.25049C13.6031 2.25049 15.75 4.30748 15.75 6.88949C15.75 7.78465 15.4454 8.65452 15.0381 9.42535C14.6283 10.2008 14.0909 10.9204 13.5687 11.5278C13.0446 12.1374 12.5228 12.649 12.1328 13.0078C11.9373 13.1876 11.7737 13.3303 11.6578 13.4288C11.5998 13.4781 11.5537 13.5165 11.5215 13.5431L11.4836 13.574L11.4729 13.5826L11.4697 13.5852L11.4687 13.586C11.4685 13.5861 11.468 13.5866 11 13.0005C10.532 13.5866 10.5319 13.5865 10.5317 13.5863L10.5303 13.5852L10.5271 13.5826L10.5164 13.574L10.4785 13.5431C10.4463 13.5165 10.4002 13.4781 10.3422 13.4288C10.2263 13.3303 10.0627 13.1876 9.8672 13.0078C9.4772 12.649 8.95536 12.1374 8.43129 11.5278C7.90905 10.9204 7.37166 10.2008 6.96189 9.42535C6.55456 8.65452 6.25 7.78465 6.25 6.88949ZM11 13.0005L10.5317 13.5863C10.8054 13.8049 11.195 13.8046 11.4687 13.586L11 13.0005ZM11 12.0107C11.0374 11.977 11.0765 11.9414 11.1172 11.9039C11.4772 11.5727 11.9554 11.1035 12.4313 10.5499C12.9091 9.99422 13.3717 9.36838 13.7119 8.72453C14.0546 8.07608 14.25 7.45283 14.25 6.88949C14.25 5.1755 12.8149 3.75049 11 3.75049C9.18514 3.75049 7.75 5.1755 7.75 6.88949C7.75 7.45283 7.94544 8.07608 8.28811 8.72453C8.62834 9.36838 9.09095 9.99422 9.56871 10.5499C10.0446 11.1035 10.5228 11.5727 10.8828 11.9039C10.9235 11.9414 10.9626 11.977 11 12.0107Z" fill="#45485E"/>
<path fill-rule="evenodd" clip-rule="evenodd" d="M11.4648 6.99966C11.4648 6.99932 11.4648 6.99999 11.4648 6.99966C11.4648 6.99801 11.4648 6.99637 11.4648 6.99472L11.4648 6.99966C11.4648 6.99801 11.4648 6.99637 11.4648 6.99472C11.4622 6.72026 11.2378 6.5282 11.0009 6.52766C11.0005 6.52766 11.0002 6.52766 10.9999 6.52766C10.7666 6.52766 10.5364 6.71662 10.5359 6.99966H10.7149L10.5359 7.00083C10.5359 7.2771 10.7598 7.47211 10.9999 7.47266C11.0002 7.47266 11.0005 7.47266 11.0009 7.47266C11.2306 7.47266 11.4635 7.28573 11.4648 6.99966ZM9.96485 7.00212C9.9662 7.58638 10.4459 8.02766 10.9999 8.02766C11.5493 8.02766 12.0359 7.59025 12.0359 7.00066C12.0359 6.41791 11.5574 5.97266 11.0009 5.97266C10.4522 5.97266 9.96232 6.40994 9.96485 7.00212Z" fill="#45485E"/>
</svg>
