<svg width="24" height="24" viewBox="0 0 24 24" fill="none" xmlns="http://www.w3.org/2000/svg">
<path d="M10 2H14" stroke="#475461" stroke-width="1.5" stroke-linecap="round" stroke-linejoin="round"/>
<path d="M6.343 7.343C9.467 4.219 14.533 4.219 17.657 7.343C20.781 10.467 20.781 15.533 17.657 18.657C14.533 21.781 9.467 21.781 6.343 18.657C3.219 15.533 3.219 10.467 6.343 7.343Z" stroke="#475461" stroke-width="1.5" stroke-linecap="round" stroke-linejoin="round"/>
<path d="M12.002 12.5C11.724 12.5 11.5 12.724 11.5 13C11.5 13.276 11.724 13.5 12 13.5C12.276 13.5 12.5 13.276 12.5 13C12.502 12.724 12.278 12.5 12.002 12.5Z" stroke="#475461" stroke-width="1.5" stroke-linecap="round" stroke-linejoin="round"/>
<path d="M16.9053 12.0952C16.9643 12.3882 17.0003 12.6892 17.0003 13.0002" stroke="#475461" stroke-width="1.5" stroke-linecap="round" stroke-linejoin="round"/>
<path d="M12.3496 12.65L15.5396 9.45996" stroke="#475461" stroke-width="1.5" stroke-linecap="round" stroke-linejoin="round"/>
<path d="M20.0002 5L17.6602 7.34" stroke="#475461" stroke-width="1.5" stroke-linecap="round" stroke-linejoin="round"/>
<path d="M19 4L21 6" stroke="#475461" stroke-width="1.5" stroke-linecap="round" stroke-linejoin="round"/>
<path d="M7 13C7 10.239 9.239 8 12 8C12.311 8 12.612 8.036 12.905 8.095" stroke="#475461" stroke-width="1.5" stroke-linecap="round" stroke-linejoin="round"/>
</svg>
