<svg width="24" height="24" viewBox="0 0 24 24" fill="none" xmlns="http://www.w3.org/2000/svg">
<path d="M12 5V7" stroke="#475461" stroke-width="1.5" stroke-linecap="round" stroke-linejoin="round"/>
<path d="M19 14H21" stroke="#475461" stroke-width="1.5" stroke-linecap="round" stroke-linejoin="round"/>
<path d="M3 14H5" stroke="#475461" stroke-width="1.5" stroke-linecap="round" stroke-linejoin="round"/>
<path d="M13.4142 11.5858C14.1953 12.3668 14.1953 13.6332 13.4142 14.4142C12.6332 15.1953 11.3668 15.1953 10.5858 14.4142C9.80474 13.6332 9.80474 12.3668 10.5858 11.5858C11.3668 10.8047 12.6332 10.8047 13.4142 11.5858" stroke="#475461" stroke-width="1.5" stroke-linecap="round" stroke-linejoin="round"/>
<path d="M12 5V7" stroke="#475461" stroke-width="1.5" stroke-linecap="round" stroke-linejoin="round"/>
<path d="M21 14H19" stroke="#475461" stroke-width="1.5" stroke-linecap="round" stroke-linejoin="round"/>
<path d="M5 14H3" stroke="#475461" stroke-width="1.5" stroke-linecap="round" stroke-linejoin="round"/>
<path d="M15.4102 9.58984L13.4102 11.5898" stroke="#475461" stroke-width="1.5" stroke-linecap="round" stroke-linejoin="round"/>
<path d="M13.4142 11.5858C14.1953 12.3668 14.1953 13.6332 13.4142 14.4142C12.6332 15.1953 11.3668 15.1953 10.5858 14.4142C9.80474 13.6332 9.80474 12.3668 10.5858 11.5858C11.3668 10.8047 12.6332 10.8047 13.4142 11.5858" stroke="#475461" stroke-width="1.5" stroke-linecap="round" stroke-linejoin="round"/>
<path d="M18.319 18.9999H5.67898C4.92898 18.9999 4.22298 18.5909 3.89698 17.9159C3.18098 16.4379 2.85598 14.7339 3.06198 12.9399C3.53198 8.8339 6.87898 5.5039 10.987 5.0549C16.411 4.4629 21 8.6949 21 13.9999C21 15.3989 20.68 16.7229 20.11 17.9029C19.782 18.5839 19.074 18.9999 18.319 18.9999V18.9999Z" stroke="#475461" stroke-width="1.5" stroke-linecap="round" stroke-linejoin="round"/>
</svg>
