<svg width="16" height="16" viewBox="0 0 16 16" fill="none" xmlns="http://www.w3.org/2000/svg">
<path d="M8 14.0005C11.3137 14.0005 14 11.3143 14 8.00055C14 4.68684 11.3137 2.00055 8 2.00055C4.68629 2.00055 2 4.68684 2 8.00055C2 11.3143 4.68629 14.0005 8 14.0005Z" stroke="#AE0000" stroke-width="1.5" stroke-linecap="round" stroke-linejoin="round"/>
<path d="M5.27642 6.44221C5.38986 6.44221 5.4666 6.49393 5.50664 6.59736L6.75281 9.71528C6.76616 9.74531 6.77283 9.77701 6.77283 9.81037C6.77283 9.85375 6.75781 9.88711 6.72779 9.91047C6.69776 9.93382 6.65438 9.9455 6.59766 9.9455H6.38747C6.27403 9.9455 6.19729 9.89378 6.15725 9.79035L5.98709 9.36996C5.94705 9.26653 5.87031 9.21481 5.75687 9.21481H4.5057C4.39226 9.21481 4.31552 9.26653 4.27548 9.36996L4.10532 9.79035C4.06529 9.89378 3.98855 9.9455 3.87511 9.9455H3.66491C3.60819 9.9455 3.56482 9.93382 3.53479 9.91047C3.50476 9.88711 3.48975 9.85375 3.48975 9.81037C3.48975 9.77701 3.49642 9.74531 3.50976 9.71528L4.75593 6.59736C4.79597 6.49393 4.87271 6.44221 4.98615 6.44221H5.27642ZM5.26641 7.55826C5.23305 7.47485 5.18801 7.43314 5.13129 7.43314C5.07457 7.43314 5.02953 7.47485 4.99616 7.55826L4.66085 8.39905C4.6475 8.42908 4.64083 8.4591 4.64083 8.48913C4.64083 8.53251 4.65584 8.56754 4.68587 8.59423C4.71923 8.61759 4.76428 8.62926 4.821 8.62926H5.44158C5.4983 8.62926 5.54167 8.61759 5.5717 8.59423C5.60507 8.56754 5.62175 8.53251 5.62175 8.48913C5.62175 8.4591 5.61507 8.42908 5.60173 8.39905L5.26641 7.55826Z" fill="#AE0000"/>
<path d="M7.76779 10.0556C7.72775 10.1624 7.65101 10.2158 7.53757 10.2158H7.37742C7.3207 10.2158 7.27733 10.2024 7.2473 10.1757C7.21727 10.1524 7.20226 10.119 7.20226 10.0756C7.20226 10.0523 7.20726 10.0222 7.21727 9.98554L8.54852 6.31709C8.58856 6.21033 8.6653 6.15694 8.77874 6.15694H8.93889C8.99561 6.15694 9.03898 6.17029 9.06901 6.19698C9.09904 6.22034 9.11405 6.2537 9.11405 6.29707C9.11405 6.32043 9.10905 6.35046 9.09904 6.38716L7.76779 10.0556Z" fill="#AE0000"/>
<path d="M11.2991 9.99555C11.4893 9.99555 11.6728 9.96552 11.8497 9.90546C12.0298 9.84207 12.1967 9.75199 12.3501 9.63521L12.4152 9.58016C12.4719 9.53678 12.5003 9.48507 12.5003 9.42501C12.5003 9.38497 12.4853 9.34327 12.4552 9.29989L12.3551 9.16477C12.3018 9.0947 12.2484 9.05967 12.195 9.05967C12.1683 9.05967 12.1449 9.06801 12.1249 9.08469L12.0098 9.17478C11.7996 9.33826 11.5627 9.42001 11.2991 9.42001C11.0823 9.42001 10.8821 9.36495 10.6986 9.25485C10.5184 9.14475 10.3749 8.99628 10.2682 8.80943C10.1614 8.61925 10.108 8.41406 10.108 8.19386C10.108 7.97365 10.1614 7.77012 10.2682 7.58328C10.3749 7.3931 10.5184 7.24296 10.6986 7.13286C10.8821 7.02276 11.0823 6.9677 11.2991 6.9677C11.5627 6.9677 11.7996 7.04945 12.0098 7.21293L12.0749 7.26298C12.1183 7.29635 12.1616 7.31303 12.205 7.31303C12.2617 7.31303 12.3118 7.283 12.3551 7.22294L12.4552 7.08782C12.4919 7.03777 12.5103 6.98939 12.5103 6.94268C12.5103 6.90264 12.4936 6.86761 12.4602 6.83758L12.3501 6.7525C12.1967 6.63573 12.0298 6.54731 11.8497 6.48725C11.6728 6.42386 11.4893 6.39216 11.2991 6.39216C10.9822 6.39216 10.6886 6.47391 10.4183 6.63739C10.1514 6.79754 9.93954 7.01608 9.78272 7.29301C9.62591 7.5666 9.5475 7.86688 9.5475 8.19386C9.5475 8.52083 9.62591 8.82278 9.78272 9.09971C9.93954 9.3733 10.1514 9.59183 10.4183 9.75532C10.6886 9.91547 10.9822 9.99555 11.2991 9.99555Z" fill="#AE0000"/>
<path fill-rule="evenodd" clip-rule="evenodd" d="M8.69536 6.37133C8.69528 6.37156 8.69519 6.37178 8.69511 6.37201L7.36676 10.0325C7.36394 10.0433 7.3621 10.0519 7.3609 10.0586C7.36529 10.059 7.37079 10.0594 7.37757 10.0594H7.53772C7.56943 10.0594 7.58405 10.0522 7.59104 10.0473C7.59804 10.0425 7.60996 10.0311 7.62124 10.0014C7.62132 10.0011 7.62141 10.0009 7.62149 10.0007L8.94984 6.34022C8.95266 6.32938 8.9545 6.32077 8.9557 6.31415C8.95131 6.31367 8.9458 6.31334 8.93903 6.31334H8.77888C8.74717 6.31334 8.73255 6.3205 8.72556 6.32537C8.71856 6.33024 8.70664 6.34155 8.69536 6.37133ZM8.54694 6.06859C8.61668 6.02007 8.69716 6.00055 8.77888 6.00055H8.93903C9.01689 6.00055 9.10131 6.01848 9.16921 6.07673C9.24013 6.13396 9.27059 6.21466 9.27059 6.29707C9.27059 6.34026 9.26175 6.38547 9.25007 6.42831L9.24838 6.43449L7.91438 10.1105C7.8857 10.187 7.83935 10.2556 7.76966 10.3041C7.69992 10.3526 7.61944 10.3722 7.53772 10.3722H7.37757C7.29971 10.3722 7.21529 10.3542 7.14739 10.296C7.07647 10.2387 7.04601 10.158 7.04601 10.0756C7.04601 10.0324 7.05485 9.98722 7.06653 9.94439L7.06822 9.93821L8.40222 6.26218C8.4309 6.18569 8.47725 6.11707 8.54694 6.06859ZM10.3378 6.50343C10.6325 6.32521 10.954 6.23577 11.2993 6.23577C11.5066 6.23577 11.7075 6.27029 11.9009 6.33944C12.097 6.405 12.2785 6.50138 12.445 6.62804L12.4459 6.62874L12.5607 6.71741L12.565 6.72133C12.6269 6.77703 12.6668 6.85267 12.6668 6.94268C12.6668 7.03207 12.6315 7.11217 12.5815 7.1803L12.5811 7.18091L12.4815 7.31536C12.4186 7.40201 12.3265 7.46942 12.2051 7.46942C12.1191 7.46942 12.0431 7.43575 11.9797 7.38694L11.9146 7.3369L11.9139 7.33639C11.7309 7.19401 11.5277 7.1241 11.2993 7.1241C11.1106 7.1241 10.9385 7.17154 10.7797 7.26664C10.6234 7.36228 10.4987 7.4924 10.4047 7.65984L10.4041 7.66088C10.3112 7.82352 10.2646 8.0002 10.2646 8.19386C10.2646 8.3873 10.3111 8.56591 10.4044 8.73232C10.4982 8.89631 10.6229 9.02511 10.7797 9.12107C10.9384 9.21616 11.1106 9.26361 11.2993 9.26361C11.5276 9.26361 11.7308 9.19374 11.9138 9.05146C11.9138 9.05142 11.9137 9.05151 11.9138 9.05146L12.0272 8.96271C12.0756 8.92321 12.1338 8.90327 12.1951 8.90327C12.322 8.90327 12.4158 8.98614 12.4797 9.06998L12.481 9.07167L12.584 9.21083C12.6265 9.27215 12.6568 9.34446 12.6568 9.42501C12.6568 9.54173 12.5991 9.63526 12.5137 9.70178L12.4451 9.75984C12.2788 9.88639 12.0974 9.98414 11.9017 10.053L11.9001 10.0536C11.7068 10.1192 11.5063 10.1519 11.2993 10.1519C10.9545 10.1519 10.6334 10.0645 10.3387 9.88987L10.3368 9.8887C10.0473 9.7114 9.81695 9.47366 9.64718 9.17748L9.64678 9.17677C9.47628 8.87567 9.39125 8.54707 9.39125 8.19386C9.39125 7.84077 9.47623 7.51362 9.64701 7.21554M11.2993 6.54856C11.0108 6.54856 10.7452 6.62255 10.4994 6.77121C10.2562 6.91715 10.0628 7.11609 9.91896 7.37007L9.91856 7.37078C9.77583 7.6198 9.70405 7.89312 9.70405 8.19386C9.70405 8.49443 9.77576 8.76959 9.91874 9.02224C10.0624 9.27276 10.2554 9.47181 10.4992 9.62135C10.7448 9.76668 11.0105 9.83915 11.2993 9.83915C11.4724 9.83915 11.6386 9.81192 11.7987 9.75764C11.9618 9.70016 12.1129 9.6188 12.2524 9.51314L12.3202 9.45577C12.3348 9.44459 12.3403 9.43682 12.342 9.43364C12.3433 9.43127 12.344 9.42925 12.344 9.42501C12.344 9.42483 12.344 9.42229 12.342 9.41668C12.34 9.41103 12.3359 9.40237 12.328 9.39069L12.2303 9.25878C12.2178 9.24244 12.2075 9.2317 12.1998 9.22483L12.1064 9.29794C11.869 9.48254 11.598 9.5764 11.2993 9.5764C11.0545 9.5764 10.8264 9.51385 10.6183 9.38896L10.6172 9.3883C10.4141 9.26418 10.2521 9.0963 10.1325 8.88703L10.1319 8.886C10.0119 8.6722 9.95178 8.4406 9.95178 8.19386C9.95178 7.94728 10.0119 7.71708 10.1323 7.50616M12.2551 6.87661C12.1152 6.77025 11.9638 6.6901 11.8004 6.63562L11.797 6.63451C11.6373 6.57727 11.4717 6.54856 11.2993 6.54856M4.93107 6.61069C4.92411 6.61538 4.91275 6.62587 4.90193 6.65381L4.90132 6.6554L3.65293 9.77885C3.65151 9.78205 3.65021 9.78523 3.64925 9.78855C3.65376 9.78889 3.659 9.7891 3.66506 9.7891H3.87525C3.90793 9.7891 3.92326 9.78189 3.93049 9.77702C3.93744 9.77233 3.9488 9.76184 3.95962 9.7339L3.96048 9.73167L4.13025 9.31229C4.15951 9.23729 4.2064 9.17068 4.27581 9.12391C4.34532 9.07706 4.42508 9.05842 4.50585 9.05842H5.75702C5.83779 9.05842 5.91754 9.07706 5.98706 9.12391C6.05647 9.17068 6.10336 9.23729 6.13262 9.31228L6.30327 9.73389C6.31408 9.76183 6.32543 9.77233 6.33238 9.77702C6.33961 9.78189 6.35494 9.7891 6.38761 9.7891H6.59781C6.60386 9.7891 6.60911 9.78889 6.61362 9.78855C6.61265 9.78523 6.61146 9.782 6.61004 9.7788L6.60763 9.77337L5.36093 6.65382C5.35011 6.62588 5.33876 6.61538 5.3318 6.61069C5.32458 6.60582 5.30925 6.59861 5.27657 6.59861H4.9863C4.95362 6.59861 4.93829 6.60582 4.93107 6.61069ZM4.75626 6.3513C4.82578 6.30446 4.90553 6.28581 4.9863 6.28581H5.27657C5.35733 6.28581 5.43709 6.30446 5.50661 6.3513C5.57613 6.39815 5.62306 6.4649 5.6523 6.54004L6.89722 9.65483C6.91869 9.70427 6.92937 9.75658 6.92937 9.81037C6.92937 9.89433 6.89775 9.97652 6.82395 10.0339C6.75588 10.0869 6.67297 10.1019 6.59781 10.1019H6.38761C6.30685 10.1019 6.22709 10.0833 6.15758 10.0364C6.08817 9.98963 6.04128 9.92302 6.01202 9.84803L5.84137 9.42642C5.83055 9.39848 5.81921 9.38798 5.81225 9.38329C5.80503 9.37843 5.7897 9.37121 5.75702 9.37121H4.50585C4.47317 9.37121 4.45784 9.37843 4.45062 9.38329C4.44366 9.38798 4.4323 9.39848 4.42148 9.42642L4.42062 9.42865L4.25085 9.84803C4.22159 9.92302 4.1747 9.98963 4.10529 10.0364C4.03578 10.0833 3.95602 10.1019 3.87525 10.1019H3.66506C3.5899 10.1019 3.50698 10.0869 3.43892 10.0339C3.36512 9.97652 3.3335 9.89433 3.3335 9.81037C3.3335 9.75658 3.34418 9.70427 3.36565 9.65483L4.61057 6.54003C4.63981 6.46489 4.68675 6.39815 4.75626 6.3513ZM4.8511 7.50017C4.89248 7.39672 4.97696 7.27674 5.13143 7.27674C5.28591 7.27674 5.37039 7.39672 5.41177 7.50017L5.74615 8.33862C5.76669 8.38586 5.77829 8.43638 5.77829 8.48913C5.77829 8.57918 5.74066 8.65947 5.66955 8.71636L5.66788 8.71769C5.59981 8.77064 5.51688 8.78566 5.44173 8.78566H4.82114C4.74456 8.78566 4.66448 8.77006 4.59633 8.72236L4.58889 8.71715L4.58211 8.71112C4.51582 8.65219 4.48458 8.57318 4.48458 8.48913C4.48458 8.43638 4.49618 8.38586 4.51671 8.33862L4.8511 7.50017ZM5.13143 7.64163L4.80402 8.46261C4.80252 8.46599 4.80123 8.46904 4.80032 8.47189C4.80604 8.47248 4.81292 8.47287 4.82114 8.47287H5.44173C5.45017 8.47287 5.45705 8.47245 5.46254 8.47186C5.46162 8.46902 5.46045 8.46593 5.45896 8.46257L5.4565 8.45703L5.13143 7.64163Z" fill="#AE0000"/>
</svg>
