<svg width="16" height="16" viewBox="0 0 16 16" fill="none" xmlns="http://www.w3.org/2000/svg">
<path d="M14.0002 12.3334V13.3334C14.0002 13.7014 13.7015 14 13.3335 14H12.0002C11.6322 14 11.3335 13.7014 11.3335 13.3334V12.3334" stroke="#AE0000" stroke-width="1.5" stroke-linecap="round" stroke-linejoin="round"/>
<path d="M4.66667 12.3334V13.3334C4.66667 13.7014 4.368 14 4 14H2.66667C2.29867 14 2 13.7014 2 13.3334V12.3334" stroke="#AE0000" stroke-width="1.5" stroke-linecap="round" stroke-linejoin="round"/>
<path d="M2 12.3334V9.16203C2 8.63136 2.21067 8.1227 2.586 7.74803L3.33333 7.00003H12.6667L13.414 7.74736C13.7893 8.1227 14 8.63136 14 9.16203V12.3334H2Z" stroke="#AE0000" stroke-width="1.5" stroke-linecap="round" stroke-linejoin="round"/>
<path d="M14 9.66672L12 9.83338" stroke="#AE0000" stroke-width="1.5" stroke-linecap="round" stroke-linejoin="round"/>
<path d="M4 9.83338L2 9.66672" stroke="#AE0000" stroke-width="1.5" stroke-linecap="round" stroke-linejoin="round"/>
<path d="M5.3335 12.3334L6.00016 10.3334H10.0002L10.6668 12.3334" stroke="#AE0000" stroke-width="1.5" stroke-linecap="round" stroke-linejoin="round"/>
<path d="M13.9998 6.33337L12.6665 6.66671" stroke="#AE0000" stroke-width="1.5" stroke-linecap="round" stroke-linejoin="round"/>
<path d="M3.33333 6.66671L2 6.33337" stroke="#AE0000" stroke-width="1.5" stroke-linecap="round" stroke-linejoin="round"/>
<path d="M3.3335 7.00004V6.66271L3.89083 4.57137C4.08483 3.84137 4.74616 3.33337 5.50083 3.33337H10.5568C11.3282 3.33337 11.9988 3.86271 12.1782 4.61337L12.6668 6.66271V7.00004" stroke="#AE0000" stroke-width="1.5" stroke-linecap="round" stroke-linejoin="round"/>
</svg>
