<svg width="43" height="16" viewBox="0 0 43 16" fill="none" xmlns="http://www.w3.org/2000/svg">
<path d="M35.5713 9.21484C37.3285 9.21484 38.7534 10.7337 38.7534 12.6078C38.7534 12.7523 38.7423 12.8945 38.7253 13.034C38.528 14.7064 37.193 15.9999 35.5717 15.9999C33.9065 15.9999 32.5413 14.6351 32.4028 12.8968C32.3955 12.8018 32.3896 12.7051 32.3896 12.6074C32.3891 10.7337 33.8136 9.21484 35.5713 9.21484ZM37.1641 11.3293L36.5155 12.0213C36.5658 12.1135 36.6054 12.213 36.631 12.3193H37.5454C37.4985 11.9504 37.366 11.6133 37.1641 11.3293ZM37.5497 12.9068H36.628C36.602 13.0113 36.5637 13.1103 36.5125 13.2012L37.1628 13.8941C37.3643 13.6124 37.4998 13.2753 37.5497 12.9068ZM35.8465 14.7155C36.1913 14.6642 36.5044 14.5201 36.7695 14.3071L36.1227 13.6169C36.0374 13.6701 35.9441 13.7091 35.8465 13.7364V14.7155ZM35.8465 11.4793C35.9467 11.5074 36.0404 11.5492 36.1278 11.6042L36.7759 10.9132C36.5096 10.6973 36.1934 10.5547 35.8465 10.5033V11.4793ZM35.2956 10.5024C34.9487 10.5538 34.6322 10.6973 34.3663 10.9127L35.0139 11.6037C35.1009 11.5488 35.1955 11.507 35.2952 11.4788L35.2956 10.5024ZM35.2956 14.7146V13.7369C35.1976 13.7091 35.1051 13.6705 35.0199 13.6169L34.3727 14.3071C34.6377 14.5201 34.9513 14.6633 35.2956 14.7146ZM33.9781 13.8972L34.6304 13.2007C34.5793 13.1094 34.538 13.0117 34.512 12.9072H33.5976C33.6461 13.2743 33.7761 13.6142 33.9781 13.8972ZM34.5107 12.3193C34.5367 12.213 34.5759 12.1135 34.6262 12.0213L33.9768 11.3293C33.7761 11.6133 33.6436 11.9504 33.5959 12.3198H34.5107V12.3193Z" fill="#C62222"/>
<path d="M9.14892 9.21484C10.9062 9.21484 12.3311 10.7337 12.3311 12.6078C12.3311 12.7523 12.32 12.8945 12.3029 13.034C12.1056 14.7064 10.7707 15.9999 9.14977 15.9999C7.48456 15.9999 6.11932 14.6351 5.98041 12.8968C5.97317 12.8018 5.9672 12.7051 5.9672 12.6074C5.96635 10.7337 7.39124 9.21484 9.14892 9.21484ZM10.7417 11.3293L10.0936 12.0213C10.1439 12.1135 10.1835 12.213 10.2091 12.3193H11.1235C11.0762 11.9504 10.9437 11.6133 10.7417 11.3293ZM11.1269 12.9068H10.2052C10.1792 13.0113 10.1409 13.1103 10.0898 13.2012L10.7396 13.8941C10.942 13.6124 11.0779 13.2753 11.1269 12.9068ZM9.42418 14.7155C9.7689 14.6642 10.0821 14.5201 10.3471 14.3071L9.70029 13.6169C9.61507 13.6701 9.52176 13.7091 9.42418 13.7364V14.7155ZM9.42418 11.4793C9.52431 11.5074 9.61806 11.5492 9.70541 11.6042L10.3535 10.9132C10.0872 10.6973 9.77145 10.5547 9.42418 10.5033V11.4793ZM8.8728 10.5024C8.52595 10.5538 8.20936 10.6973 7.94347 10.9127L8.59157 11.6037C8.6785 11.5488 8.77309 11.5061 8.8728 11.4788V10.5024ZM8.8728 14.7146V13.7369C8.7748 13.7091 8.68233 13.6705 8.59711 13.6169L7.94986 14.3071C8.2149 14.5201 8.52894 14.6633 8.8728 14.7146ZM7.55571 13.8972L8.20808 13.2016C8.15695 13.1099 8.11519 13.0126 8.08962 12.9077H7.1752C7.22378 13.2743 7.35331 13.6142 7.55571 13.8972ZM8.08834 12.3193C8.11434 12.213 8.15311 12.1135 8.20382 12.0213L7.55486 11.3293C7.35374 11.6133 7.22165 11.9504 7.1735 12.3198H8.08834V12.3193Z" fill="#C62222"/>
<path d="M1.50801 7.4573V4.94664C1.50801 4.54273 1.78328 4.20062 2.15739 4.13837C3.05519 3.98844 4.64669 3.70539 5.3617 3.4705C6.3869 3.13338 10.348 1.34511 11.7196 1.00936C13.0916 0.673601 19.2778 -1.11921 25.2028 1.07069C26.2054 1.44098 30.7157 3.73992 33.3678 4.93528C34.1488 4.95345 41.8796 6.67176 42.2913 7.8494C42.7029 9.02749 42.832 9.59905 42.9078 9.898C42.9837 10.197 42.9078 11.6277 42.3334 12.624C41.748 12.977 40.6209 13.2142 39.3179 13.3732C39.3328 13.2883 39.349 13.2047 39.3592 13.1188C39.3818 12.9352 39.3925 12.7676 39.3925 12.6077C39.3925 10.361 37.6787 8.53272 35.5712 8.53272C33.4637 8.53272 31.7499 10.3605 31.7499 12.6077C31.7499 12.7231 31.7571 12.8376 31.7652 12.9502C31.7852 13.2024 31.8279 13.4473 31.8896 13.6831C31.8867 13.6831 31.8794 13.6831 31.8794 13.6831L12.911 13.276C12.9195 13.2237 12.9306 13.172 12.937 13.1188C12.9596 12.9362 12.9702 12.768 12.9702 12.6077C12.9702 10.361 11.2564 8.53317 9.14891 8.53317C7.0414 8.53317 5.32718 10.3605 5.32718 12.6077C5.32718 12.6163 5.32803 12.6236 5.32846 12.6317L5.2475 12.6245L2.00442 11.9734C2.00442 11.9734 0.762329 11.2683 0.762329 9.32826C0.761906 8.03431 1.50801 7.4573 1.50801 7.4573ZM20.3243 5.07703L27.4083 5.30829C27.2779 4.17654 27.9064 3.92256 27.9064 3.92256C25.0903 1.197 19.4146 1.10477 19.4146 1.10477L20.3243 5.07703ZM12.3741 4.73128L18.8296 4.96254L18.2445 1.10522C14.9081 1.05888 13.0022 1.84397 13.0022 1.84397L12.049 3.48413L12.3741 4.73128ZM8.73474 4.70766H10.5333L12.3315 2.07478C10.9824 2.64724 9.90268 3.21153 9.25969 3.56818C8.86938 3.78445 8.65633 4.24651 8.73474 4.70766Z" fill="#C62222"/>
</svg>
