<svg width="24" height="24" viewBox="0 0 24 24" fill="none" xmlns="http://www.w3.org/2000/svg">
<path d="M20.356 10.9557L4.68985 3.12225C4.51174 3.03371 4.314 2.99206 4.11531 3.00125C3.91662 3.01043 3.72356 3.07015 3.55439 3.17475C3.38521 3.27935 3.24551 3.42537 3.14851 3.59901C3.0515 3.77265 3.00038 3.96816 3 4.16706V19.8332C3.00031 20.0321 3.05138 20.2277 3.14839 20.4013C3.2454 20.575 3.38513 20.721 3.55435 20.8256C3.72357 20.9301 3.91668 20.9897 4.11539 20.9988C4.31409 21.0078 4.51182 20.966 4.68985 20.8773L20.356 13.0446C20.5499 12.9476 20.713 12.7985 20.827 12.614C20.941 12.4295 21.0014 12.217 21.0014 12.0001C21.0014 11.7833 20.941 11.5707 20.827 11.3863C20.713 11.2018 20.5499 11.0527 20.356 10.9557V10.9557Z" fill="white"/>
</svg>
