
<svg width="16" height="16" viewBox="0 0 16 16" fill="none" xmlns="http://www.w3.org/2000/svg">
<path d="M12.8835 6.31213C12.8835 6.31213 12.5215 10.8021 12.3115 12.6935C12.2115 13.5968 11.6535 14.1261 10.7395 14.1428C9.00019 14.1741 7.25885 14.1761 5.52018 14.1395C4.64085 14.1215 4.09218 13.5855 3.99418 12.6981C3.78285 10.7901 3.42285 6.31213 3.42285 6.31213" stroke="#C62222" stroke-width="1.5" stroke-linecap="round" stroke-linejoin="round"/>
<path d="M13.8053 4.15981H2.5" stroke="#C62222" stroke-width="1.5" stroke-linecap="round" stroke-linejoin="round"/>
<path d="M11.6274 4.15982C11.104 4.15982 10.6534 3.78982 10.5507 3.27715L10.3887 2.46648C10.2887 2.09248 9.95004 1.83382 9.56404 1.83382H6.74204C6.35604 1.83382 6.01738 2.09248 5.91738 2.46648L5.75538 3.27715C5.65271 3.78982 5.20204 4.15982 4.67871 4.15982" stroke="#C62222" stroke-width="1.5" stroke-linecap="round" stroke-linejoin="round"/>
</svg>
