<svg width="16" height="16" viewBox="0 0 16 16" fill="none" xmlns="http://www.w3.org/2000/svg">
<path fill-rule="evenodd" clip-rule="evenodd" d="M10.1665 8.66702C10.1665 8.39087 10.3904 8.16702 10.6665 8.16702H11.9998C13.0126 8.16702 13.8332 8.98754 13.8332 10.0003C13.8332 11.0132 13.0126 11.8337 11.9998 11.8337H3.99984C3.53931 11.8337 3.1665 12.2065 3.1665 12.667C3.1665 13.1275 3.53931 13.5003 3.99984 13.5003H6.6665C6.94265 13.5003 7.1665 13.7242 7.1665 14.0003C7.1665 14.2765 6.94265 14.5003 6.6665 14.5003H3.99984C2.98703 14.5003 2.1665 13.6798 2.1665 12.667C2.1665 11.6542 2.98703 10.8337 3.99984 10.8337H11.9998C12.4604 10.8337 12.8332 10.4609 12.8332 10.0003C12.8332 9.53982 12.4604 9.16702 11.9998 9.16702H10.6665C10.3904 9.16702 10.1665 8.94316 10.1665 8.66702Z" fill="#AE0000"/>
<path fill-rule="evenodd" clip-rule="evenodd" d="M4.1665 4.59302C4.1665 2.87168 5.59774 1.50035 7.33317 1.50035C9.0686 1.50035 10.4998 2.87168 10.4998 4.59302C10.4998 5.18979 10.2968 5.76971 10.0252 6.28359C9.75207 6.80055 9.3938 7.28028 9.04564 7.68523C8.69626 8.09161 8.34837 8.43268 8.08837 8.67188C7.95804 8.79179 7.84896 8.88687 7.77171 8.95258C7.73306 8.98545 7.70232 9.01103 7.68081 9.02873L7.65559 9.04933L7.64847 9.05508L7.64633 9.0568L7.64562 9.05737C7.64552 9.05745 7.64516 9.05774 7.33317 8.66702C7.02118 9.05774 7.02109 9.05766 7.02098 9.05758L7.02001 9.0568L7.01787 9.05508L7.01075 9.04933L6.98554 9.02873C6.96402 9.01103 6.93328 8.98545 6.89463 8.95258C6.81738 8.88687 6.7083 8.79179 6.57797 8.67188C6.31797 8.43268 5.97008 8.09161 5.6207 7.68523C5.27254 7.28028 4.91428 6.80055 4.6411 6.28359C4.36954 5.76971 4.1665 5.18979 4.1665 4.59302ZM7.33317 8.66702L7.02098 9.05758C7.20346 9.20328 7.46315 9.20307 7.64562 9.05737L7.33317 8.66702ZM7.33317 8.00716C7.35808 7.98468 7.38417 7.96093 7.4113 7.93597C7.65131 7.71515 7.97008 7.40235 8.28736 7.0333C8.60587 6.66284 8.91428 6.24561 9.1411 5.81638C9.36954 5.38408 9.49984 4.96858 9.49984 4.59302C9.49984 3.45036 8.54308 2.50035 7.33317 2.50035C6.12326 2.50035 5.1665 3.45036 5.1665 4.59302C5.1665 4.96858 5.2968 5.38408 5.52524 5.81638C5.75207 6.24561 6.06047 6.66284 6.37898 7.0333C6.69626 7.40235 7.01503 7.71515 7.25504 7.93597C7.28217 7.96093 7.30826 7.98468 7.33317 8.00716Z" fill="#AE0000"/>
<path fill-rule="evenodd" clip-rule="evenodd" d="M7.64307 4.66635C7.64307 4.66613 7.64307 4.66657 7.64307 4.66635C7.64307 4.66525 7.64307 4.66416 7.64306 4.66306L7.64307 4.66635C7.64307 4.66525 7.64307 4.66416 7.64306 4.66306C7.64129 4.48008 7.4917 4.35204 7.33374 4.35168C7.33352 4.35168 7.33329 4.35168 7.33307 4.35168C7.1776 4.35168 7.0241 4.47766 7.02374 4.66635H7.14307L7.02374 4.66713C7.0238 4.85131 7.17302 4.98132 7.33307 4.98168C7.33329 4.98168 7.33352 4.98168 7.33374 4.98168C7.48694 4.98168 7.64219 4.85707 7.64307 4.66635ZM6.64307 4.66799C6.64397 5.0575 6.96377 5.35168 7.33307 5.35168C7.69939 5.35168 8.02374 5.06008 8.02374 4.66702C8.02374 4.27852 7.70475 3.98168 7.33374 3.98168C6.96799 3.98168 6.64139 4.2732 6.64307 4.66799Z" fill="#AE0000"/>
</svg>
