<svg width="16" height="16" viewBox="0 0 16 16" fill="none" xmlns="http://www.w3.org/2000/svg">
<path d="M8 4.00107V5.00107" stroke="#AE0000" stroke-width="1.5" stroke-linecap="round" stroke-linejoin="round"/>
<path d="M12.2426 3.75843C14.5858 6.10157 14.5858 9.90056 12.2426 12.2437C9.89948 14.5868 6.10049 14.5868 3.75736 12.2437C1.41421 9.90055 1.41421 6.10156 3.75736 3.75843C6.10051 1.41528 9.89949 1.41528 12.2426 3.75843" stroke="#AE0000" stroke-width="1.5" stroke-linecap="round" stroke-linejoin="round"/>
<path d="M8 12.0011V11.0011" stroke="#AE0000" stroke-width="1.5" stroke-linecap="round" stroke-linejoin="round"/>
<path d="M6 9.5044C6 10.3331 6.67133 11.0044 7.5 11.0044H8.59533C9.37067 11.0044 10 10.3757 10 9.59973C10 8.95573 9.562 8.3944 8.93733 8.23773L7.06267 7.76773C6.438 7.61107 6 7.04974 6 6.40574C6 5.62974 6.62867 5.00107 7.40467 5.00107H8.5C9.32867 5.00107 10 5.6724 10 6.50107" stroke="#AE0000" stroke-width="1.5" stroke-linecap="round" stroke-linejoin="round"/>
</svg>
