<svg width="24" height="24" viewBox="0 0 24 24" fill="none" xmlns="http://www.w3.org/2000/svg">
<path d="M19 6.94H12.529C12.198 6.94 11.888 6.776 11.702 6.502L10.297 4.437C10.111 4.164 9.802 4 9.471 4H5C3.895 4 3 4.895 3 6V18C3 19.105 3.895 20 5 20H19C20.105 20 21 19.105 21 18V8.94C21 7.836 20.105 6.94 19 6.94V6.94Z" stroke="#475461" stroke-width="1.5" stroke-linecap="round" stroke-linejoin="round"/>
<path d="M10.833 10.583V11.751C10.833 12.073 11.094 12.334 11.416 12.334H12.584C12.906 12.334 13.167 12.073 13.167 11.751V10.583C13.167 10.261 12.906 10 12.584 10H11.416C11.094 10 10.833 10.261 10.833 10.583Z" stroke="#475461" stroke-width="1.5" stroke-linecap="round" stroke-linejoin="round"/>
<path d="M8.00488 15.249V16.417C8.00488 16.739 8.26588 17 8.58788 17H9.75588C10.0779 17 10.3389 16.739 10.3389 16.417V15.249C10.3389 14.927 10.0779 14.666 9.75588 14.666H8.58788C8.26588 14.667 8.00488 14.927 8.00488 15.249V15.249Z" stroke="#475461" stroke-width="1.5" stroke-linecap="round" stroke-linejoin="round"/>
<path d="M13.6611 15.249V16.417C13.6611 16.739 13.9221 17 14.2441 17H15.4121C15.7341 17 15.9951 16.739 15.9951 16.417V15.249C15.9951 14.927 15.7341 14.666 15.4121 14.666H14.2441C13.9221 14.667 13.6611 14.927 13.6611 15.249V15.249Z" stroke="#475461" stroke-width="1.5" stroke-linecap="round" stroke-linejoin="round"/>
<path d="M13.6598 15.5498H10.3398" stroke="#475461" stroke-width="1.5" stroke-linecap="round" stroke-linejoin="round"/>
<path d="M9.79004 14.6703L11.36 12.3203" stroke="#475461" stroke-width="1.5" stroke-linecap="round" stroke-linejoin="round"/>
<path d="M12.7305 12.2998L14.2305 14.6698" stroke="#475461" stroke-width="1.5" stroke-linecap="round" stroke-linejoin="round"/>
</svg>
