<svg width="16" height="15" viewBox="0 0 16 15" fill="none" xmlns="http://www.w3.org/2000/svg">
<path d="M8.45825 2.16602H14.8749C15.1279 2.16602 15.3333 2.37135 15.3333 2.62435V11.791C15.3333 12.044 15.1279 12.2493 14.8749 12.2493H8.45825V2.16602Z" fill="#858C93"/>
<path d="M10.2917 3.99927H8.45833C8.20533 3.99927 8 4.2046 8 4.4576C8 4.7106 8.20533 4.91593 8.45833 4.91593H10.2917C10.5447 4.91593 10.75 4.7106 10.75 4.4576C10.75 4.2046 10.5447 3.99927 10.2917 3.99927Z" fill="white"/>
<path d="M10.2917 5.83276H8.45833C8.20533 5.83276 8 6.0381 8 6.2911C8 6.5441 8.20533 6.74943 8.45833 6.74943H10.2917C10.5447 6.74943 10.75 6.5441 10.75 6.2911C10.75 6.0381 10.5447 5.83276 10.2917 5.83276Z" fill="white"/>
<path d="M10.2917 7.66602H8.45833C8.20533 7.66602 8 7.87135 8 8.12435C8 8.37735 8.20533 8.58268 8.45833 8.58268H10.2917C10.5447 8.58268 10.75 8.37735 10.75 8.12435C10.75 7.87135 10.5447 7.66602 10.2917 7.66602Z" fill="white"/>
<path d="M10.2917 9.49927H8.45833C8.20533 9.49927 8 9.7046 8 9.9576C8 10.2106 8.20533 10.4159 8.45833 10.4159H10.2917C10.5447 10.4159 10.75 10.2106 10.75 9.9576C10.75 9.7046 10.5447 9.49927 10.2917 9.49927Z" fill="white"/>
<path d="M13.0415 3.99927H12.1248C11.8718 3.99927 11.6665 4.2046 11.6665 4.4576C11.6665 4.7106 11.8718 4.91593 12.1248 4.91593H13.0415C13.2945 4.91593 13.4998 4.7106 13.4998 4.4576C13.4998 4.2046 13.2945 3.99927 13.0415 3.99927Z" fill="white"/>
<path d="M13.0415 5.83276H12.1248C11.8718 5.83276 11.6665 6.0381 11.6665 6.2911C11.6665 6.5441 11.8718 6.74943 12.1248 6.74943H13.0415C13.2945 6.74943 13.4998 6.5441 13.4998 6.2911C13.4998 6.0381 13.2945 5.83276 13.0415 5.83276Z" fill="white"/>
<path d="M13.0415 7.66602H12.1248C11.8718 7.66602 11.6665 7.87135 11.6665 8.12435C11.6665 8.37735 11.8718 8.58268 12.1248 8.58268H13.0415C13.2945 8.58268 13.4998 8.37735 13.4998 8.12435C13.4998 7.87135 13.2945 7.66602 13.0415 7.66602Z" fill="white"/>
<path d="M13.0415 9.49927H12.1248C11.8718 9.49927 11.6665 9.7046 11.6665 9.9576C11.6665 10.2106 11.8718 10.4159 12.1248 10.4159H13.0415C13.2945 10.4159 13.4998 10.2106 13.4998 9.9576C13.4998 9.7046 13.2945 9.49927 13.0415 9.49927Z" fill="white"/>
<path d="M8.37408 0.340934C8.50792 0.316184 8.64633 0.351934 8.75083 0.438101C8.85625 0.525184 8.91675 0.654434 8.91675 0.791017V13.6243C8.91675 13.76 8.85625 13.8902 8.75083 13.9773C8.66833 14.046 8.56383 14.0827 8.45842 14.0827C8.43091 14.0827 8.40158 14.0799 8.37408 14.0744L1.04075 12.6994C0.823498 12.6591 0.666748 12.4693 0.666748 12.2493V2.16602C0.666748 1.9451 0.823498 1.75627 1.04075 1.71593L8.37408 0.340934Z" fill="#858C93"/>
<path d="M6.97062 8.73937L3.76228 5.07271C3.59362 4.88112 3.30487 4.86279 3.11512 5.02962C2.92445 5.19645 2.9052 5.48612 3.07203 5.67587L6.28037 9.34254C6.37112 9.44612 6.49762 9.49929 6.62503 9.49929C6.73228 9.49929 6.83953 9.46171 6.92753 9.38562C7.1182 9.21879 7.13745 8.93004 6.97062 8.73937Z" fill="white"/>
<path d="M6.90659 4.55487C6.70676 4.39812 6.41893 4.43571 6.26309 4.63462L3.05476 8.75962C2.89984 8.95946 2.93559 9.24821 3.13543 9.40313C3.21976 9.46821 3.31876 9.49937 3.41684 9.49937C3.55251 9.49937 3.68818 9.43888 3.77801 9.32338L6.98634 5.19837C7.14218 4.99762 7.10643 4.70979 6.90659 4.55487Z" fill="white"/>
</svg>
