<svg width="16" height="16" viewBox="0 0 16 16" fill="none" xmlns="http://www.w3.org/2000/svg">
<g clip-path="url(#clip0)">
<path d="M3.83341 4C4.01023 4 4.17979 3.92976 4.30482 3.80474C4.42984 3.67971 4.50008 3.51014 4.50008 3.33333V1.33333H10.3907L11.8334 2.77533V3.33333C11.8334 3.51014 11.9037 3.67971 12.0287 3.80474C12.1537 3.92976 12.3233 4 12.5001 4C12.6769 4 12.8465 3.92976 12.9715 3.80474C13.0965 3.67971 13.1667 3.51014 13.1667 3.33333V2.49933C13.1667 2.32254 13.0964 2.153 12.9714 2.028L11.3334 0.391333C11.0831 0.14164 10.7443 0.000980591 10.3907 0L4.50008 0C4.14646 0 3.80732 0.140476 3.55727 0.390524C3.30722 0.640573 3.16675 0.979711 3.16675 1.33333V3.33333C3.16675 3.51014 3.23699 3.67971 3.36201 3.80474C3.48703 3.92976 3.6566 4 3.83341 4Z" fill="#858C93"/>
<path d="M14.3333 4.66675H1.66667C1.22464 4.66675 0.800716 4.84234 0.488155 5.1549C0.175595 5.46746 0 5.89139 0 6.33341L0 9.33342C0 9.77544 0.175595 10.1994 0.488155 10.5119C0.800716 10.8245 1.22464 11.0001 1.66667 11.0001H3.33333V15.1667C3.33351 15.3877 3.42136 15.5996 3.57761 15.7558C3.73385 15.9121 3.94571 15.9999 4.16667 16.0001H12.1667C12.3876 15.9999 12.5995 15.9121 12.7557 15.7558C12.912 15.5996 12.9998 15.3877 13 15.1667V11.0001H14.3333C14.5522 11.0001 14.7689 10.957 14.9711 10.8732C15.1733 10.7895 15.3571 10.6667 15.5118 10.5119C15.6666 10.3572 15.7894 10.1734 15.8731 9.97122C15.9569 9.76901 16 9.55228 16 9.33342V6.33341C16 6.11454 15.9569 5.89782 15.8731 5.69561C15.7894 5.4934 15.6666 5.30967 15.5118 5.1549C15.3571 5.00014 15.1733 4.87737 14.9711 4.79362C14.7689 4.70986 14.5522 4.66675 14.3333 4.66675ZM2.33333 7.66675C2.20148 7.66675 2.07259 7.62765 1.96295 7.55439C1.85332 7.48114 1.76787 7.37702 1.71741 7.2552C1.66696 7.13339 1.65375 6.99934 1.67948 6.87002C1.7052 6.7407 1.76869 6.62191 1.86193 6.52868C1.95516 6.43544 2.07395 6.37195 2.20327 6.34622C2.33259 6.3205 2.46664 6.3337 2.58846 6.38416C2.71027 6.43462 2.81439 6.52007 2.88765 6.6297C2.9609 6.73933 3 6.86823 3 7.00008C3 7.17689 2.92976 7.34646 2.80474 7.47149C2.67971 7.59651 2.51014 7.66675 2.33333 7.66675ZM11.6667 14.3334C11.6667 14.4218 11.6315 14.5066 11.569 14.5691C11.5065 14.6316 11.4217 14.6667 11.3333 14.6667H5C4.91159 14.6667 4.82681 14.6316 4.7643 14.5691C4.70179 14.5066 4.66667 14.4218 4.66667 14.3334V8.30475C4.66667 8.21634 4.70179 8.13156 4.7643 8.06905C4.82681 8.00653 4.91159 7.97141 5 7.97141H11.3333C11.4217 7.97141 11.5065 8.00653 11.569 8.06905C11.6315 8.13156 11.6667 8.21634 11.6667 8.30475V14.3334Z" fill="#858C93"/>
<path d="M9.79058 10.5961C9.76755 10.5403 9.72976 10.4917 9.68126 10.4556C9.63276 10.4196 9.57538 10.3974 9.51524 10.3915C9.45527 10.3862 9.39497 10.3969 9.34051 10.4225C9.28604 10.4482 9.23936 10.4878 9.20524 10.5375L8.09858 12.1888L6.99991 11.2888C6.96154 11.2572 6.91659 11.2345 6.86834 11.2225C6.8201 11.2105 6.76978 11.2095 6.72107 11.2195C6.67237 11.2294 6.62651 11.2502 6.58686 11.2802C6.54721 11.3102 6.51477 11.3486 6.49191 11.3928L5.39991 13.5135C5.37364 13.5642 5.36084 13.6208 5.36273 13.6779C5.36463 13.7349 5.38116 13.7906 5.41074 13.8394C5.44032 13.8883 5.48196 13.9287 5.53166 13.9569C5.58137 13.985 5.63746 13.9999 5.69458 14.0001H10.6946C10.7493 14.0001 10.8031 13.9865 10.8514 13.9608C10.8996 13.935 10.9408 13.8977 10.9712 13.8522C11.0017 13.8068 11.0204 13.7545 11.0259 13.7001C11.0314 13.6457 11.0234 13.5907 11.0026 13.5401L9.79058 10.5961Z" fill="#858C93"/>
</g>
<defs>
<clipPath id="clip0">
<rect width="16" height="16" fill="white"/>
</clipPath>
</defs>
</svg>
