<svg width="32" height="32" viewBox="0 0 32 32" fill="none" xmlns="http://www.w3.org/2000/svg">
<path d="M16 30.9973C24.2843 30.9973 31 24.2816 31 15.9973C31 7.71304 24.2843 0.997314 16 0.997314C7.71573 0.997314 1 7.71304 1 15.9973C1 24.2816 7.71573 30.9973 16 30.9973Z" stroke="#C62222" stroke-width="1.5" stroke-linecap="round" stroke-linejoin="round"/>
<path d="M15.9571 19.4041H10.8191C10.8891 18.5501 11.3511 18.1441 12.2891 17.6401L13.2131 17.1501C14.9631 16.2821 15.8451 15.3301 15.8451 13.7481C15.8451 12.0541 14.5291 10.8081 12.3591 10.8081C9.93708 10.8081 8.74708 12.1381 8.76108 14.2241H10.5811C10.5811 12.9501 11.2251 12.4041 12.3031 12.4041C13.3531 12.4041 13.9411 12.9921 13.9411 13.8881C13.9411 14.7561 13.4791 15.2741 12.3451 15.8201L11.3651 16.3241C9.09708 17.3461 8.81708 18.9421 8.74708 20.2581L8.70508 21.0001H15.9571V19.4041Z" fill="#C62222"/>
<path d="M23.7949 21.0001L21.1069 17.2901L23.6549 13.7761H21.6809L21.3029 14.3081C20.9249 14.8681 20.5189 15.4561 20.1549 16.0161C19.7769 15.4421 19.3989 14.8821 18.9929 14.3081L18.6149 13.7761H16.5989L19.1469 17.3041L16.4589 21.0001H18.4329L18.6989 20.6221C19.1749 19.9501 19.6509 19.2501 20.1129 18.5781C20.5749 19.2501 21.0369 19.9361 21.5129 20.6221L21.7789 21.0001H23.7949Z" fill="#C62222"/>
</svg>
