<svg width="14" height="14" viewBox="0 0 14 14" fill="none" xmlns="http://www.w3.org/2000/svg">
<path fill-rule="evenodd" clip-rule="evenodd" d="M12.6015 8.0535C12.84 8.18016 13.0239 8.38016 13.1534 8.58016C13.4055 8.9935 13.385 9.50016 13.1398 9.94683L12.6628 10.7468C12.4108 11.1735 11.9407 11.4402 11.4569 11.4402C11.2185 11.4402 10.9528 11.3735 10.7347 11.2402C10.5576 11.1268 10.3532 11.0868 10.1352 11.0868C9.46071 11.0868 8.89522 11.6402 8.87479 12.3002C8.87479 13.0668 8.24798 13.6668 7.46448 13.6668H6.53791C5.7476 13.6668 5.1208 13.0668 5.1208 12.3002C5.10717 11.6402 4.54169 11.0868 3.86719 11.0868C3.64236 11.0868 3.43797 11.1268 3.26765 11.2402C3.04963 11.3735 2.77711 11.4402 2.54546 11.4402C2.05492 11.4402 1.58482 11.1735 1.33274 10.7468L0.862639 9.94683C0.610556 9.5135 0.59693 8.9935 0.849013 8.58016C0.958022 8.38016 1.16241 8.18016 1.39406 8.0535C1.58482 7.96016 1.70746 7.80683 1.82328 7.62683C2.16393 7.0535 1.95954 6.30016 1.38043 5.96016C0.705939 5.58016 0.487921 4.7335 0.876265 4.0735L1.33274 3.28683C1.7279 2.62683 2.57271 2.3935 3.25402 2.78016C3.84675 3.10016 4.61663 2.88683 4.9641 2.32016C5.0731 2.1335 5.13442 1.9335 5.1208 1.7335C5.10717 1.4735 5.18211 1.22683 5.31156 1.02683C5.56364 0.613496 6.02012 0.346829 6.51747 0.333496H7.47811C7.98228 0.333496 8.43875 0.613496 8.69083 1.02683C8.81347 1.22683 8.89522 1.4735 8.87479 1.7335C8.86116 1.9335 8.92248 2.1335 9.03149 2.32016C9.37895 2.88683 10.1488 3.10016 10.7484 2.78016C11.4229 2.3935 12.2745 2.62683 12.6628 3.28683L13.1193 4.0735C13.5145 4.7335 13.2965 5.58016 12.6151 5.96016C12.036 6.30016 11.8316 7.0535 12.1791 7.62683C12.2881 7.80683 12.4108 7.96016 12.6015 8.0535ZM5.0731 7.00683C5.0731 8.0535 5.93835 8.88683 7.008 8.88683C8.07765 8.88683 8.92247 8.0535 8.92247 7.00683C8.92247 5.96016 8.07765 5.12016 7.008 5.12016C5.93835 5.12016 5.0731 5.96016 5.0731 7.00683Z" fill="#858C93"/>
</svg>
