<svg width="32" height="32" viewBox="0 0 32 32" fill="none" xmlns="http://www.w3.org/2000/svg">
<path d="M16 30.9973C24.2843 30.9973 31 24.2816 31 15.9973C31 7.71304 24.2843 0.997314 16 0.997314C7.71573 0.997314 1 7.71304 1 15.9973C1 24.2816 7.71573 30.9973 16 30.9973Z" stroke="#C62222" stroke-width="1.5" stroke-linecap="round" stroke-linejoin="round"/>
<path d="M12 20.8173C12.0003 21.2361 12.1212 21.6458 12.3481 21.9977C12.5751 22.3496 12.8985 22.6288 13.2797 22.8018C13.661 22.9749 14.084 23.0346 14.4983 22.9737C14.9126 22.9129 15.3006 22.7341 15.616 22.4587L23 16L15.616 9.53735C15.3008 9.26137 14.9127 9.08207 14.4982 9.02091C14.0838 8.95975 13.6605 9.01932 13.279 9.19249C12.8975 9.36565 12.5739 9.64508 12.3471 9.99733C12.1203 10.3496 11.9998 10.7597 12 11.1787V20.8173Z" stroke="#C62222" stroke-width="1.5" stroke-linecap="round" stroke-linejoin="round"/>
</svg>
