<svg width="16" height="16" viewBox="0 0 16 16" fill="none" xmlns="http://www.w3.org/2000/svg">
<path fill-rule="evenodd" clip-rule="evenodd" d="M5.33333 2.50045C4.58189 2.50045 3.86122 2.79897 3.32986 3.33032C2.79851 3.86167 2.5 4.58234 2.5 5.33379V10.6671C2.5 11.4186 2.79851 12.1392 3.32986 12.6706C3.86122 13.2019 4.58189 13.5005 5.33333 13.5005H10.6667C11.4181 13.5005 12.1388 13.2019 12.6701 12.6706C13.2015 12.1392 13.5 11.4186 13.5 10.6671V5.33379C13.5 4.58234 13.2015 3.86167 12.6701 3.33032C12.1388 2.79897 11.4181 2.50045 10.6667 2.50045H5.33333ZM2.62276 2.62321C3.34165 1.90432 4.31667 1.50045 5.33333 1.50045H10.6667C11.6833 1.50045 12.6584 1.90432 13.3772 2.62321C14.0961 3.3421 14.5 4.31712 14.5 5.33379V10.6671C14.5 11.6838 14.0961 12.6588 13.3772 13.3777C12.6584 14.0966 11.6833 14.5005 10.6667 14.5005H5.33333C4.31667 14.5005 3.34165 14.0966 2.62276 13.3777C1.90387 12.6588 1.5 11.6838 1.5 10.6671V5.33379C1.5 4.31712 1.90387 3.3421 2.62276 2.62321Z" fill="#AE0000"/>
<path d="M6.99455 9.01912C6.99455 8.77023 7.119 8.64579 7.36789 8.64579H8.94522C9.29366 8.64579 9.60789 8.5649 9.88789 8.40312C10.1679 8.23512 10.3857 8.0049 10.5412 7.71245C10.703 7.42001 10.7839 7.08712 10.7839 6.71379C10.7839 6.34668 10.703 6.0169 10.5412 5.72445C10.3857 5.43201 10.1679 5.2049 9.88789 5.04312C9.60789 4.88134 9.29677 4.80045 8.95455 4.80045H6.32255C6.07366 4.80045 5.94922 4.9249 5.94922 5.17379V10.9605C5.94922 11.2093 6.07366 11.3338 6.32255 11.3338H6.62122C6.87011 11.3338 6.99455 11.2093 6.99455 10.9605V9.01912ZM6.99455 6.21912C6.99455 5.97023 7.119 5.84579 7.36789 5.84579H8.95455C9.20966 5.84579 9.40255 5.92979 9.53322 6.09779C9.67011 6.26579 9.73855 6.47112 9.73855 6.71379C9.73855 6.96268 9.67011 7.17423 9.53322 7.34845C9.40255 7.51645 9.20655 7.60045 8.94522 7.60045H7.36789C7.119 7.60045 6.99455 7.47601 6.99455 7.22712V6.21912Z" fill="#AE0000"/>
</svg>
