<svg width="16" height="16" viewBox="0 0 16 16" fill="none" xmlns="http://www.w3.org/2000/svg">
<path d="M7.23727 8.76348C6.45727 7.98348 5.86927 7.11014 5.4786 6.22414C5.39593 6.03681 5.4446 5.81748 5.58927 5.67281L6.13527 5.12748C6.5826 4.68014 6.5826 4.04748 6.19193 3.65681L5.40927 2.87414C4.8886 2.35348 4.0446 2.35348 3.52393 2.87414L3.08927 3.30881C2.59527 3.80281 2.38927 4.51548 2.5226 5.22214C2.85193 6.96414 3.86393 8.87148 5.4966 10.5041C7.12927 12.1368 9.0366 13.1488 10.7786 13.4781C11.4853 13.6115 12.1979 13.4055 12.6919 12.9115L13.1259 12.4775C13.6466 11.9568 13.6466 11.1128 13.1259 10.5921L12.3439 9.81014C11.9533 9.41948 11.3199 9.41948 10.9299 9.81014L10.3279 10.4128C10.1833 10.5575 9.96393 10.6061 9.7766 10.5235C8.8906 10.1321 8.01727 9.54348 7.23727 8.76348V8.76348Z" stroke="#AE0000" stroke-width="1.5" stroke-linecap="round" stroke-linejoin="round"/>
</svg>
