<svg width="16" height="16" viewBox="0 0 16 16" fill="none" xmlns="http://www.w3.org/2000/svg">
<g clip-path="url(#clip0)">
<path d="M11.6628 3.51712C12.6343 4.48856 13.18 5.80611 13.18 7.17994C13.18 8.55376 12.6343 9.87131 11.6628 10.8427L8.86314 13.6424C8.63422 13.8713 8.32374 13.9999 8 13.9999C7.67626 13.9999 7.36578 13.8713 7.13686 13.6424L4.33719 10.8427C3.36575 9.87131 2.82 8.55376 2.82 7.17994C2.82 5.80611 3.36575 4.48856 4.33719 3.51712V3.51712C5.30863 2.54568 6.62618 1.99994 8 1.99994C9.37382 1.99994 10.6914 2.54568 11.6628 3.51712V3.51712Z" stroke="#AE0000" stroke-width="1.5" stroke-linecap="round" stroke-linejoin="round"/>
<path d="M7.99999 8.95739C8.98158 8.95739 9.77732 8.16165 9.77732 7.18006C9.77732 6.19846 8.98158 5.40273 7.99999 5.40273C7.0184 5.40273 6.22266 6.19846 6.22266 7.18006C6.22266 8.16165 7.0184 8.95739 7.99999 8.95739Z" stroke="#AE0000" stroke-width="1.5" stroke-linecap="round" stroke-linejoin="round"/>
</g>
<defs>
<clipPath id="clip0">
<rect width="16" height="16" fill="white"/>
</clipPath>
</defs>
</svg>
