<svg width="16" height="16" viewBox="0 0 16 16" fill="none" xmlns="http://www.w3.org/2000/svg">
<path d="M10.7758 2.00061H3.33776C2.59776 2.00061 1.9991 2.60327 2.00443 3.34394L2.07376 12.6773C2.0791 13.4099 2.67443 14.0006 3.4071 14.0006H12.6611C13.3978 14.0006 13.9944 13.4039 13.9944 12.6673V5.21927C13.9944 4.86594 13.8538 4.52661 13.6038 4.27661L11.7184 2.39127C11.4684 2.14127 11.1298 2.00061 10.7758 2.00061Z" stroke="#AE0000" stroke-width="1.5" stroke-linecap="round" stroke-linejoin="round"/>
<path d="M10.6619 2.00061V4.60661C10.6619 4.97461 10.3633 5.27327 9.99528 5.27327H5.99528C5.62728 5.27327 5.32861 4.97461 5.32861 4.60661V2.00061" stroke="#AE0000" stroke-width="1.5" stroke-linecap="round" stroke-linejoin="round"/>
<path d="M4.6665 14.0006V8.85794C4.6665 8.38461 5.0505 8.00061 5.52384 8.00061H10.4765C10.9492 8.00061 11.3332 8.38461 11.3332 8.85794V14.0006" stroke="#AE0000" stroke-width="1.5" stroke-linecap="round" stroke-linejoin="round"/>
</svg>
