<svg width="13" height="16" viewBox="0 0 13 16" fill="none" xmlns="http://www.w3.org/2000/svg">
<ellipse cx="6.71953" cy="4.85203" rx="3.18535" ry="3.18535" stroke="#C62222" stroke-width="1.5" stroke-linecap="round" stroke-linejoin="round"/>
<path fill-rule="evenodd" clip-rule="evenodd" d="M1.667 12.4676C1.66615 12.2437 1.71623 12.0225 1.81346 11.8207C2.11857 11.2105 2.97898 10.8871 3.69294 10.7407C4.20784 10.6308 4.72986 10.5574 5.2551 10.521C6.22755 10.4356 7.20562 10.4356 8.17806 10.521C8.70326 10.5578 9.22525 10.6312 9.74023 10.7407C10.4542 10.8871 11.3146 11.18 11.6197 11.8207C11.8152 12.2319 11.8152 12.7093 11.6197 13.1205C11.3146 13.7612 10.4542 14.0542 9.74023 14.1945C9.22593 14.3089 8.70372 14.3844 8.17806 14.4203C7.38657 14.4874 6.59138 14.4996 5.7982 14.4569C5.61513 14.4569 5.43817 14.4569 5.2551 14.4203C4.73141 14.3849 4.2112 14.3094 3.69904 14.1945C2.97898 14.0542 2.12467 13.7612 1.81346 13.1205C1.71672 12.9165 1.66669 12.6934 1.667 12.4676Z" stroke="#C62222" stroke-width="1.5" stroke-linecap="round" stroke-linejoin="round"/>
</svg>
