<svg width="16" height="16" viewBox="0 0 16 16" fill="none" xmlns="http://www.w3.org/2000/svg">
<path d="M8 2.00168V3.62768" stroke="#AE0000" stroke-width="1.5" stroke-linecap="round" stroke-linejoin="round"/>
<path d="M10.6667 5.33434L8.93604 7.065" stroke="#AE0000" stroke-width="1.5" stroke-linecap="round" stroke-linejoin="round"/>
<path d="M7.98763 6.66768C8.7243 6.66768 9.32096 7.26435 9.32096 8.00101C9.32096 8.73768 8.7243 9.33435 7.98763 9.33435C7.25096 9.33435 6.6543 8.73768 6.6543 8.00101C6.6543 7.26435 7.25096 6.66768 7.98763 6.66768Z" stroke="#AE0000" stroke-width="1.5" stroke-linecap="round" stroke-linejoin="round"/>
<path d="M2 8.00101H3.33333" stroke="#AE0000" stroke-width="1.5" stroke-linecap="round" stroke-linejoin="round"/>
<path d="M4.70083 11.301L3.75817 12.2437L3.76017 12.241L3.7575 12.2437C1.41417 9.90034 1.41417 6.10167 3.7575 3.75834C6.10083 1.41501 9.8995 1.41501 12.2428 3.75834C13.4148 4.92967 14.0002 6.46567 14.0002 8.00101H12.6668" stroke="#AE0000" stroke-width="1.5" stroke-linecap="round" stroke-linejoin="round"/>
<path d="M3.76025 3.761L4.70025 4.701" stroke="#AE0000" stroke-width="1.5" stroke-linecap="round" stroke-linejoin="round"/>
<path d="M10.3936 11.061L12.2736 12.941" stroke="#AE0000" stroke-width="1.5" stroke-linecap="round" stroke-linejoin="round"/>
<path d="M12.2736 11.061L10.3936 12.941" stroke="#AE0000" stroke-width="1.5" stroke-linecap="round" stroke-linejoin="round"/>
</svg>
