<svg width="16" height="16" viewBox="0 0 16 16" fill="none" xmlns="http://www.w3.org/2000/svg">
<path d="M8 3.33354V4.66688" stroke="#AE0000" stroke-width="1.5" stroke-linecap="round" stroke-linejoin="round"/>
<path d="M12.6665 9.33354H13.9998" stroke="#AE0000" stroke-width="1.5" stroke-linecap="round" stroke-linejoin="round"/>
<path d="M2 9.33354H3.33333" stroke="#AE0000" stroke-width="1.5" stroke-linecap="round" stroke-linejoin="round"/>
<path d="M8.94265 7.72407C9.46335 8.24477 9.46335 9.08899 8.94265 9.60969C8.42195 10.1304 7.57773 10.1304 7.05703 9.60969C6.53633 9.08899 6.53633 8.24477 7.05703 7.72407C7.57773 7.20337 8.42195 7.20337 8.94265 7.72407" stroke="#AE0000" stroke-width="1.5" stroke-linecap="round" stroke-linejoin="round"/>
<path d="M8 3.33354V4.66688" stroke="#AE0000" stroke-width="1.5" stroke-linecap="round" stroke-linejoin="round"/>
<path d="M13.9998 9.33354H12.6665" stroke="#AE0000" stroke-width="1.5" stroke-linecap="round" stroke-linejoin="round"/>
<path d="M3.33333 9.33354H2" stroke="#AE0000" stroke-width="1.5" stroke-linecap="round" stroke-linejoin="round"/>
<path d="M10.2733 6.39354L8.93994 7.72687" stroke="#AE0000" stroke-width="1.5" stroke-linecap="round" stroke-linejoin="round"/>
<path d="M8.94265 7.72407C9.46335 8.24477 9.46335 9.08899 8.94265 9.60969C8.42195 10.1304 7.57773 10.1304 7.05703 9.60969C6.53633 9.08899 6.53633 8.24477 7.05703 7.72407C7.57773 7.20337 8.42195 7.20337 8.94265 7.72407" stroke="#AE0000" stroke-width="1.5" stroke-linecap="round" stroke-linejoin="round"/>
<path d="M12.2125 12.6669H3.78582C3.28582 12.6669 2.81516 12.3942 2.59782 11.9442C2.12049 10.9589 1.90382 9.82287 2.04116 8.62687C2.35449 5.88954 4.58582 3.66954 7.32449 3.37021C10.9405 2.97554 13.9998 5.79687 13.9998 9.33354C13.9998 10.2662 13.7865 11.1489 13.4065 11.9355C13.1878 12.3895 12.7158 12.6669 12.2125 12.6669V12.6669Z" stroke="#AE0000" stroke-width="1.5" stroke-linecap="round" stroke-linejoin="round"/>
</svg>
