<svg width="16" height="16" viewBox="0 0 16 16" fill="none" xmlns="http://www.w3.org/2000/svg">
<path d="M6.87927 3.2907C7.73023 3.08853 8.62013 3.12142 9.45385 3.38586C10.2876 3.6503 11.0337 4.13634 11.6126 4.79203C11.7591 4.95752 11.9653 5.05805 12.1859 5.07149C12.4065 5.08493 12.6234 5.01018 12.7889 4.8637C12.9544 4.71721 13.055 4.51098 13.0684 4.29037C13.0818 4.06977 13.0071 3.85286 12.8606 3.68736C12.0822 2.80543 11.0789 2.15157 9.95772 1.79566C8.83657 1.43975 7.63979 1.39518 6.49527 1.6667C5.33377 1.95831 4.26909 2.5495 3.40751 3.38125C2.54594 4.21299 1.91761 5.25619 1.58527 6.4067C1.57429 6.44479 1.55003 6.4777 1.51689 6.49946C1.48376 6.52123 1.44392 6.53042 1.4046 6.52536L0.715933 6.4387C0.654861 6.43085 0.592814 6.44038 0.536917 6.46621C0.48102 6.49203 0.433541 6.5331 0.399933 6.5847C0.365426 6.63619 0.345961 6.69628 0.343723 6.75823C0.341486 6.82017 0.356565 6.88151 0.387267 6.93536L2.03793 9.83003C2.06367 9.87502 2.09955 9.9134 2.14272 9.9421C2.18588 9.9708 2.23515 9.98904 2.2866 9.99536C2.30036 9.99636 2.31417 9.99636 2.32793 9.99536C2.37258 9.99536 2.41677 9.98639 2.45788 9.96898C2.499 9.95158 2.53619 9.92609 2.56727 9.89403L4.88527 7.4987C4.92841 7.45407 4.95824 7.39829 4.97139 7.33763C4.98454 7.27697 4.9805 7.21384 4.95971 7.15536C4.93892 7.09687 4.90222 7.04535 4.85373 7.0066C4.80524 6.96785 4.7469 6.94341 4.68527 6.93603L3.43327 6.78136C3.40869 6.77789 3.38521 6.76898 3.36452 6.75528C3.34383 6.74157 3.32646 6.72342 3.31368 6.70214C3.30091 6.68087 3.29304 6.65701 3.29066 6.63231C3.28828 6.60761 3.29145 6.58268 3.29993 6.55936C3.58116 5.76186 4.05505 5.04619 4.67949 4.47594C5.30393 3.9057 6.05958 3.49856 6.87927 3.2907Z" fill="#858C93"/>
<path d="M15.6041 9.40003C15.6382 9.34829 15.6572 9.28806 15.6589 9.22612C15.6607 9.16418 15.6452 9.10297 15.6141 9.04936L13.9474 6.16336C13.9213 6.11857 13.8851 6.08049 13.8417 6.05213C13.7983 6.02378 13.7489 6.00594 13.6974 6.00003C13.646 5.99328 13.5937 5.99889 13.5449 6.01639C13.4961 6.0339 13.4521 6.0628 13.4167 6.1007L11.1127 8.51003C11.07 8.55469 11.0405 8.61037 11.0276 8.67083C11.0146 8.7313 11.0188 8.79417 11.0395 8.85241C11.0603 8.91066 11.0968 8.96198 11.1451 9.00065C11.1933 9.03931 11.2514 9.0638 11.3127 9.07136L12.5447 9.2187C12.5696 9.22164 12.5936 9.23018 12.6147 9.24369C12.6358 9.2572 12.6536 9.27532 12.6667 9.2967C12.6798 9.31805 12.688 9.34206 12.6906 9.36697C12.6933 9.39188 12.6904 9.41706 12.6821 9.4407C12.4012 10.2382 11.9274 10.9538 11.3028 11.5238C10.6783 12.0937 9.9225 12.5003 9.10273 12.7074C8.2517 12.9092 7.36184 12.876 6.52818 12.6115C5.69452 12.3469 4.94837 11.8609 4.3694 11.2054C4.29775 11.1205 4.20987 11.0509 4.11092 11.0005C4.01197 10.9501 3.90395 10.92 3.7932 10.9119C3.68245 10.9039 3.57121 10.918 3.46601 10.9536C3.36081 10.9891 3.26377 11.0453 3.1806 11.1189C3.09743 11.1925 3.02981 11.2819 2.98169 11.382C2.93358 11.4821 2.90596 11.5908 2.90044 11.7017C2.89493 11.8126 2.91163 11.9235 2.94958 12.0278C2.98752 12.1322 3.04594 12.2279 3.1214 12.3094C3.90002 13.1911 4.90355 13.8448 6.02478 14.2006C7.14601 14.5564 8.34283 14.6009 9.4874 14.3294C10.6504 14.0381 11.7164 13.4462 12.5786 12.6132C13.4409 11.7801 14.069 10.735 14.4001 9.5827C14.4111 9.54475 14.4353 9.51195 14.4682 9.49011C14.5012 9.46826 14.5408 9.45879 14.5801 9.46336L15.2854 9.54803C15.2987 9.54898 15.3121 9.54898 15.3254 9.54803C15.3805 9.54829 15.4347 9.53492 15.4834 9.50909C15.532 9.48326 15.5735 9.4458 15.6041 9.40003Z" fill="#858C93"/>
</svg>
