<svg width="24" height="24" viewBox="0 0 24 24" fill="none" xmlns="http://www.w3.org/2000/svg">
<path d="M14.4752 4.52518C14.8002 4.8502 15.058 5.23606 15.2339 5.66072C15.4098 6.08538 15.5004 6.54053 15.5004 7.00018C15.5004 7.45983 15.4098 7.91498 15.2339 8.33964C15.058 8.7643 14.8002 9.15016 14.4752 9.47518C14.1502 9.8002 13.7643 10.058 13.3396 10.2339C12.915 10.4098 12.4598 10.5004 12.0002 10.5004C11.5405 10.5004 11.0854 10.4098 10.6607 10.2339C10.2361 10.058 9.8502 9.8002 9.52518 9.47518C8.86877 8.81877 8.5 7.92848 8.5 7.00018C8.5 6.07187 8.86877 5.18159 9.52518 4.52518C10.1816 3.86877 11.0719 3.5 12.0002 3.5C12.9285 3.5 13.8188 3.86877 14.4752 4.52518" stroke="#C62222" stroke-width="1.5" stroke-linecap="round" stroke-linejoin="round"/>
<path d="M4 18.5003V19.5003C4 19.7655 4.10536 20.0199 4.29289 20.2074C4.48043 20.3949 4.73478 20.5003 5 20.5003H19C19.2652 20.5003 19.5196 20.3949 19.7071 20.2074C19.8946 20.0199 20 19.7655 20 19.5003V18.5003C20 15.4743 16.048 13.5083 12 13.5083C7.952 13.5083 4 15.4743 4 18.5003Z" stroke="#C62222" stroke-width="1.5" stroke-linecap="round" stroke-linejoin="round"/>
</svg>
