<svg width="16" height="16" viewBox="0 0 16 16" fill="none" xmlns="http://www.w3.org/2000/svg">
<path d="M9.64996 3.01734C9.86664 3.23402 10.0385 3.49126 10.1558 3.77436C10.2731 4.05747 10.3334 4.3609 10.3334 4.66734C10.3334 4.97377 10.2731 5.2772 10.1558 5.56031C10.0385 5.84342 9.86664 6.10066 9.64996 6.31734C9.43328 6.53402 9.17604 6.7059 8.89293 6.82317C8.60982 6.94043 8.30639 7.00079 7.99996 7.00079C7.69352 7.00079 7.39009 6.94043 7.10698 6.82317C6.82388 6.7059 6.56664 6.53402 6.34996 6.31734C5.91235 5.87973 5.6665 5.28621 5.6665 4.66734C5.6665 4.04847 5.91235 3.45494 6.34996 3.01734C6.78756 2.57973 7.38109 2.33389 7.99996 2.33389C8.61883 2.33389 9.21235 2.57973 9.64996 3.01734" stroke="#AE0000" stroke-width="1.5" stroke-linecap="round" stroke-linejoin="round"/>
<path d="M2.6665 12.334V13.0007C2.6665 13.1775 2.73674 13.3471 2.86177 13.4721C2.98679 13.5971 3.15636 13.6673 3.33317 13.6673H12.6665C12.8433 13.6673 13.0129 13.5971 13.1379 13.4721C13.2629 13.3471 13.3332 13.1775 13.3332 13.0007V12.334C13.3332 10.3167 10.6985 9.006 7.99984 9.006C5.30117 9.006 2.6665 10.3167 2.6665 12.334Z" stroke="#AE0000" stroke-width="1.5" stroke-linecap="round" stroke-linejoin="round"/>
</svg>
